<svg width="50" height="50" viewBox="0 0 200 200" fill="none" xmlns="http://www.w3.org/2000/svg">
<path fill-rule="evenodd" clip-rule="evenodd" d="M177.4 88.404C177.611 89.116 177.963 89.8 177.829 90.581C177.225 90.629 176.683 89.959 175.897 90.476C176.574 90.789 177.157 91.059 177.74 91.329C177.797 91.689 177.853 92.05 177.909 92.41C177.512 92.713 177.545 93.153 177.548 93.577C177.57 96.948 175.745 99.15 173.181 101.099C171.699 102.225 169.904 101.732 168.43 102.646C166.936 103.574 165.149 104.082 163.442 103.97C162.228 103.891 161.316 104.321 160.368 104.737C159.725 105.018 159.188 105.07 158.5 105.081C155.922 105.119 153.369 105.091 150.826 106.024C148.347 106.933 145.622 106.889 142.962 106.663C142.58 106.631 142.306 106.535 142.102 106.142C141.326 104.643 139.712 104.382 138.496 105.614C138.14 105.974 137.953 106.541 137.415 106.034C136.384 105.061 135.338 105.786 134.584 106.217C133.69 106.728 133.286 106.664 132.872 105.846C132.176 104.471 131.369 105.114 130.529 105.676C130.05 105.996 129.832 106.93 129.113 106.619C127.21 105.797 125.176 105.713 123.195 105.629C121.309 105.549 119.472 105.625 117.797 104.566C117.651 104.474 117.243 104.723 116.995 104.876C115.033 106.084 112.855 106.912 110.648 107.262C106.745 107.879 102.793 108.319 98.806 107.778C94.039 107.132 89.61 105.678 85.513 103.077C84.103 102.181 82.888 100.116 80.649 101.402C80.609 101.425 80.521 101.399 80.474 101.368C78.823 100.248 76.695 101.291 75.074 100.227C73.668 99.305 71.553 101.545 70.527 99.143C70.514 99.111 70.043 99.371 69.86 99.301C68.836 98.911 68.092 99.219 67.211 99.854C66.53 100.345 65.593 100.295 64.741 99.538C63.287 98.245 61.01 98.399 59.541 99.712C58.994 100.201 58.721 99.867 58.355 99.48C57.531 98.609 56.672 98.206 55.303 98.102C53.782 97.986 52.775 98.358 51.686 99.163C51.259 99.478 50.642 99.967 50.193 99.619C47.95 97.882 45.006 100.168 42.695 98.125C41.657 97.207 39.787 97.302 38.442 96.639C37.444 96.147 36.783 96.08 35.794 96.647C34.202 97.56 31.755 96.336 31.261 94.522C31.072 93.829 30.458 93.164 30.048 93.688C28.724 95.376 27.82 94.325 26.773 93.483C26.381 93.169 25.883 93.103 25.379 93.192C24.297 93.243 24.003 92.611 23.881 91.653C23.738 90.527 24.691 90.896 25.147 90.625C25.54 90.391 26.031 90.321 26.478 90.178C27.832 90.45 29.12 89.914 30.447 89.82C33.758 89.585 37.053 89.127 40.361 88.836C42.708 88.629 45.067 88.548 47.515 88.405C47.075 89.676 45.803 88.66 45.278 89.592C46.285 90.148 47.326 89.474 48.282 89.784C48.362 89.81 48.65 89.527 48.629 89.478C47.917 87.81 49.294 88.397 49.881 88.42C50.348 88.438 51.241 87.841 51.255 88.568C51.274 89.635 50.327 88.739 49.856 88.929C49.788 88.956 49.772 89.117 49.659 89.397C51.979 89.652 54.221 90.05 56.504 89.532C58.711 89.459 60.914 89.354 63.07 88.816C64.64 89.223 66.242 89.078 67.835 89.099C69.419 89.932 71.154 89.275 72.794 89.578C72.803 89.579 72.873 89.258 72.915 89.087C75.356 89.091 77.778 88.534 80.229 88.835C80.287 89.065 80.338 89.338 80.635 89.327C80.927 89.316 80.971 89.046 81.012 88.809C81.243 88.791 81.474 88.772 81.705 88.754C82.02 88.63 81.988 88.516 81.697 88.406C81.612 88.015 81.44 87.708 80.989 87.667C81.057 86.847 80.637 86.255 79.865 86.351C77.281 86.673 74.559 86.119 72.136 86.721C68.258 87.684 64.425 86.946 60.594 87.15C55.533 87.42 50.447 87.702 45.363 87.762C43.927 87.779 42.473 87.389 41.049 87.774C36.977 88.873 32.811 89.072 28.627 89.128C27.897 89.138 27.159 89.081 26.503 89.501C25.934 89.772 25.336 89.876 24.709 89.817C24.459 89.022 24.37 88.282 24.527 87.388C24.919 85.16 25.824 83.025 25.773 80.719L25.774 80.717C26.133 80.7 26.627 80.789 26.748 80.396C27.401 78.275 29.53 77.256 30.454 75.405C31.085 74.14 33.122 73.831 32.716 71.943C33.084 71.631 33.474 71.341 33.816 71.002C35.9 68.927 38.219 67.159 40.753 65.67C41.592 66.311 43.317 66.004 43.052 67.845C43.017 68.085 43.323 68.235 43.59 68.185C43.961 68.116 44.092 67.795 44.032 67.499C43.816 66.428 44.534 65.679 44.913 64.82C45.115 64.361 45.359 63.592 46.021 64.16C46.341 64.435 46.922 65.15 46.146 65.688C45.063 66.439 45.578 67.1 46.057 67.973C46.726 69.195 48.398 69.678 48.299 71.517C48.228 72.85 48.438 74.427 50.558 74.249C50.967 74.215 50.815 74.79 50.883 75.129C51.071 76.066 51.113 77.432 51.72 77.807C53.351 78.816 55.223 79.421 56.362 81.132C56.551 81.416 56.984 81.88 57.225 81.652C58.258 80.676 58.523 81.879 58.722 82.271C60.047 84.876 62.769 83.23 64.62 84.25C64.997 84.458 65.668 83.792 65.646 83.026C65.632 82.564 65.875 81.991 66.36 82.483C66.998 83.13 68.069 83.022 68.506 83.707C69.322 84.986 70.304 84.729 71.333 84.239C72.296 83.781 73.133 83.039 74.347 83.593C74.799 83.799 75.048 83.329 75.214 82.885C75.53 82.042 75.916 81.226 76.273 80.399C76.529 80.046 76.785 79.694 77.041 79.341C78.107 77.96 79.236 76.643 80.716 75.677C83.438 73.385 86.307 71.356 89.863 70.559C89.823 70.756 89.784 70.95 89.746 71.143C89.288 71.416 88.859 71.766 88.369 71.951C85.652 72.973 83.231 74.415 81.374 76.697C80.088 77.909 78.004 78.488 78.1 80.818C78.103 80.903 77.709 81.012 77.494 81.096C76.831 81.355 76.684 81.926 76.61 82.542C75.848 83.679 76.064 84.212 77.506 84.009C77.74 83.976 78.132 83.919 78.201 84.029C79.131 85.522 79.454 84.314 79.906 83.668C80.606 83.638 81.374 83.791 81.784 82.975C82.006 82.716 82.228 82.458 82.45 82.2C82.521 82.634 82.224 83.267 82.778 83.445C83.333 83.624 83.728 83.171 84.01 82.685C84.24 82.289 84.42 81.813 85.008 81.821L85.067 81.788C85.056 81.915 85.045 82.042 85.034 82.169C86.038 84.233 87.543 83.447 89.012 82.867C89.656 83.768 89.137 85.582 91.136 85.34C91.25 84.728 91.391 83.97 91.532 83.212C91.571 82.999 91.61 82.785 91.649 82.571C91.85 82.585 92.051 82.599 92.253 82.613C92.235 83.822 92.661 84.427 93.998 84.032C94.566 83.865 95.194 83.901 95.794 83.844C96.094 83.673 96.395 83.502 96.695 83.331C96.719 83.536 96.743 83.74 96.767 83.944C96.745 84.335 96.786 84.749 97.31 84.596C97.951 84.409 98.593 84.138 98.529 83.266C98.756 82.079 98.165 81.618 97.061 81.611C96.778 81.537 96.496 81.463 96.213 81.389C96.13 80.921 96.046 80.453 95.962 79.985C96.334 79.579 96.706 79.173 97.079 78.767L97.249 78.816L97.426 78.805C98.848 78.714 98.65 79.993 99.071 80.75C98.783 81.402 99.321 81.934 99.333 82.543C99.305 82.772 99.414 82.891 99.634 82.924C100.512 83.374 101.355 83.053 102.202 82.808C102.87 84.004 103.688 82.461 104.396 82.928C105.078 83.709 105.189 82.379 105.712 82.572C105.758 82.81 105.802 83.049 105.846 83.286C105.656 84.265 106.159 85.114 106.986 85.139C107.965 85.168 107.984 84.091 108.063 83.292C108.141 83.163 108.239 82.72 108.321 82.991C108.527 83.671 109.02 83.642 109.497 83.754C111.722 84.302 111.991 84.104 112.096 81.839C112.369 81.851 112.645 81.864 112.919 81.876C112.981 82.342 113.045 82.809 113.107 83.275C112.536 84.823 113.421 85.744 114.523 86.646C114.741 85.596 115.149 84.649 114.973 83.614C115.024 83.152 115.075 82.69 115.124 82.228C115.327 82.208 115.531 82.188 115.734 82.169C115.733 82.417 115.731 82.665 115.73 82.913C115.049 84.433 117.227 84.091 117.207 85.181C116.237 85.154 115.422 85.248 116.14 86.543C116.154 87.397 116.691 87.301 117.254 87.157C117.578 87.166 117.902 87.176 118.227 87.185C118.527 87.192 119.001 87.478 119.051 87.015C119.095 86.618 118.599 86.614 118.257 86.608C118.133 86.495 117.479 86.552 118.066 86.214C118.42 86.01 118.812 85.927 118.936 85.478C119.659 85.143 120.519 84.021 120.866 85.822C120.903 86.016 120.887 86.377 121.262 86.117C122.557 85.218 122.962 86.312 123.611 87.637C123.659 86.084 124.691 85.87 125.395 85.226C124.27 84.847 122.596 86.246 122.338 84.066C122.359 83.938 122.381 83.811 122.402 83.683C122.661 83.599 122.919 83.514 123.176 83.429C123.377 83.452 123.577 83.475 123.778 83.499C124.166 83.935 124.682 84.036 125.229 84.058C125.334 84.73 125.974 84.945 126.277 84.604C127.152 83.617 127.707 84.438 128.315 84.965C128.652 84.225 128.369 83.744 128.145 83.248C127.976 82.873 127.612 82.449 127.953 82.074C128.453 81.523 128.751 82.186 129.153 82.368C130.874 83.148 132.669 82.468 133.259 80.792C133.42 80.334 133.569 80.053 134.076 79.994C136.144 79.751 137.313 77.818 139.545 77.407C141.493 77.048 144.178 76.073 144.671 73.192C144.715 72.937 144.912 72.461 145.419 72.552C145.608 71.49 147.463 70.978 146.234 69.345C145.716 68.658 145.09 68.035 144.613 67.309C144.175 66.641 144.511 65.325 144.395 65.308C142.785 65.08 142.166 63.599 141.023 62.828C139.457 61.771 137.67 60.996 136.241 59.791C134.939 58.695 133.397 58.112 131.97 57.372C130.022 56.361 127.958 55.358 125.631 55.357C125.505 55.357 125.264 55 125.274 54.819C125.323 53.856 124.761 53.54 123.983 53.12C122.881 52.525 121.957 51.603 120.956 50.822C120.65 50.583 120.368 50.273 120.648 49.913C121.002 49.457 121.477 49.679 121.739 50.019C122.877 51.502 124.637 51.423 126.19 51.776C127.394 52.05 128.485 51.677 128.902 50.294C129.264 50.311 129.627 50.328 129.989 50.344C131.781 51.486 133.919 51.719 135.828 52.557C137.562 53.319 139.393 53.827 141.156 54.488C143.463 55.353 145.297 57.132 147.655 58.081C150.868 59.374 153.421 61.907 156.509 63.533C157.269 63.933 158.22 63.998 158.837 64.698C160.298 66.355 162.061 67.7 163.625 69.259C165.942 71.569 168.262 73.888 170.604 76.179C171.183 76.746 171.351 77.767 172.424 77.766C172.424 77.766 172.436 77.784 172.436 77.783C172.381 78.335 172.4 78.839 173.143 78.872L173.157 78.893C173.258 79.964 173.435 80.99 174.636 81.415L174.64 81.423C174.555 82.829 174.619 84.165 176.231 84.765C176.306 85 176.38 85.235 176.457 85.47C175.892 86.725 176.603 87.579 177.4 88.404ZM103.685 98.947C103.1 98.614 102.688 98.39 102.507 97.789C102.177 96.696 100.118 95.877 99.04 96.239C97.238 96.843 96.145 98.175 96.498 99.576C96.883 101.109 96.186 101.365 94.975 101.025C94.125 100.786 93.049 100.513 92.497 100.945C91.153 101.997 89.818 101.88 88.352 101.586C87.962 101.508 87.43 101.451 87.301 102.018C87.188 102.513 87.558 102.737 87.954 102.972C92.476 105.659 97.359 106.812 102.614 106.707C105.78 106.645 108.902 106.203 111.921 105.431C113.387 105.056 115.263 104.891 116.519 103.027C115 103.027 113.658 103.345 112.555 102.966C109.427 101.889 105.671 103.772 102.94 100.872C102.669 100.583 101.91 100.661 101.989 100.022C102.086 99.216 102.99 99.519 103.685 98.947ZM154.216 88.634C145.147 88.312 136.073 88.424 126.64 88.017C127.881 89.29 151.086 89.657 154.216 88.634ZM101.645 85.023C100.766 84.895 100.13 86.088 99.705 86.914C99.289 87.724 101.02 89.087 102.242 89.11C103.805 89.138 104.21 87.906 104.258 86.82C104.309 85.652 103.304 85.14 101.645 85.023ZM44.214 89.92C43.52 89.088 37.593 89.427 35.983 90.391C38.781 91.182 41.465 89.983 44.214 89.92ZM110.036 86.931C110.875 86.95 111.724 86.882 111.629 85.893C111.482 84.379 110.052 85.384 109.3 84.912C108.84 84.624 108.41 85.178 108.478 85.735C108.591 86.671 109.177 87.069 110.036 86.931ZM88.377 86.909C88.072 86.224 87.384 86.047 87.042 85.451C86.642 84.755 85.728 85.075 85.059 85.222C84.544 85.335 84.612 85.899 84.699 86.293C84.887 87.152 85.625 86.868 86.176 86.899C86.882 86.938 87.593 86.909 88.377 86.909ZM94.596 86.51C94.989 86.292 95.903 86.796 95.882 85.798C95.856 84.55 94.818 85.193 94.228 85.08C93.633 84.966 92.826 85.08 92.896 85.837C92.979 86.746 93.89 86.442 94.596 86.51ZM103.784 90.01C102.768 90.064 102.082 90.345 101.419 89.89C101.071 89.651 100.766 89.075 100.21 89.39C100.076 89.466 100.015 89.835 100.062 90.036C100.209 90.662 100.771 90.854 101.296 90.882C102.07 90.923 102.963 91.211 103.784 90.01ZM106.742 91.829C106.265 91.832 106.275 92.204 106.232 92.558C106.115 93.537 106.92 93.536 107.5 93.704C107.851 93.806 108.008 93.498 108.012 93.161C108.023 92.328 107.397 92.091 106.742 91.829ZM115.263 94.607C115.087 93.274 114.534 92.753 113.58 92.674C113.129 92.637 113.15 93.008 113.196 93.284C113.383 94.417 114.376 94.177 115.263 94.607Z" fill="#572E25"/>
<path fill-rule="evenodd" clip-rule="evenodd" d="M25.375 93.186C25.879 93.097 26.377 93.163 26.769 93.477C27.816 94.318 28.72 95.37 30.044 93.682C30.455 93.158 31.068 93.823 31.257 94.516C31.751 96.33 34.198 97.555 35.79 96.641C36.779 96.074 37.441 96.141 38.438 96.633C39.783 97.296 41.653 97.201 42.691 98.119C45.002 100.162 47.946 97.876 50.189 99.613C50.638 99.961 51.255 99.473 51.682 99.157C52.771 98.353 53.778 97.981 55.299 98.096C56.668 98.2 57.527 98.603 58.351 99.474C58.717 99.861 58.99 100.195 59.537 99.706C61.006 98.393 63.283 98.239 64.737 99.532C65.59 100.289 66.527 100.339 67.207 99.848C68.088 99.213 68.832 98.905 69.856 99.295C70.039 99.365 70.51 99.106 70.523 99.137C71.549 101.539 73.664 99.3 75.07 100.221C76.691 101.285 78.82 100.242 80.47 101.362C80.516 101.393 80.605 101.42 80.645 101.396C82.884 100.109 84.1 102.175 85.509 103.071C89.607 105.673 94.035 107.126 98.802 107.772C102.789 108.313 106.741 107.874 110.644 107.256C112.851 106.906 115.029 106.078 116.991 104.87C117.239 104.718 117.646 104.469 117.793 104.56C119.469 105.62 121.306 105.543 123.191 105.623C125.172 105.707 127.206 105.791 129.109 106.613C129.828 106.924 130.047 105.99 130.525 105.67C131.365 105.108 132.171 104.465 132.868 105.84C133.282 106.658 133.686 106.722 134.58 106.211C135.334 105.78 136.38 105.056 137.411 106.028C137.949 106.535 138.136 105.968 138.492 105.608C139.709 104.377 141.322 104.637 142.098 106.136C142.302 106.53 142.577 106.625 142.958 106.657C145.618 106.884 148.343 106.928 150.822 106.018C153.365 105.084 155.918 105.113 158.496 105.075C159.184 105.064 159.722 105.013 160.364 104.731C161.312 104.315 162.224 103.885 163.438 103.964C165.145 104.075 166.932 103.568 168.426 102.64C169.9 101.726 171.695 102.219 173.177 101.093C175.741 99.144 177.567 96.942 177.544 93.571C177.541 93.147 177.508 92.707 177.905 92.404C178.649 95.076 177.876 97.447 176.458 99.69C175.975 100.571 175.786 101.611 175.028 102.345C174.424 102.307 173.681 102.049 173.258 102.486C172.158 103.627 170.734 104.335 169.509 105.28C167.771 106.621 166.328 108.541 163.931 108.978C163.393 109.077 162.577 108.973 162.312 109.599C161.887 110.603 163.492 109.988 163.417 110.809C162.229 111.493 161.666 112.074 160.573 113.643C160.464 113.8 160.161 113.91 159.955 113.899C157.306 113.762 155.99 115.579 154.869 117.51C154.409 118.303 153.765 119.076 153.105 119.238C151.418 119.651 151.067 121.033 150.5 122.228C149.741 123.825 148.958 125.249 147.336 126.24C146.154 126.962 144.406 127.239 143.831 128.321C142.653 130.533 140.438 130.624 138.643 131.481C136.936 132.296 134.943 132.58 133.201 133.249C129.284 134.755 125.357 136.268 121.342 137.422C118.03 138.373 114.517 138.607 111.107 139.23C109.651 139.496 108.175 140.039 106.773 140.168C103.349 140.486 99.878 140.285 96.427 140.3C92.08 140.32 87.813 139.737 83.531 138.983C81.393 138.606 79.62 136.932 77.308 137.408C77.075 137.391 76.841 137.375 76.607 137.358C76.231 136.21 75.115 136.668 74.368 136.327C73.948 136.314 73.52 136.325 73.229 135.936C74.06 134.915 72.921 134.907 72.503 134.629C70.518 133.308 68.358 132.295 67.252 129.879C66.728 128.737 65.599 127.602 64.461 127.082C63.028 126.428 62.771 125.351 62.831 124.212C62.875 123.372 62.711 123.243 62.003 123.038C60.818 122.694 60.568 121.62 60.996 120.683C61.435 119.721 62.326 120.32 63.058 120.549C63.516 120.693 63.883 121.612 64.422 120.939C65.356 119.774 66.2 120.539 66.982 120.995C67.3 121.18 67.395 121.808 67.897 121.307C68.328 120.874 68.216 120.377 67.767 120.045C66.884 119.393 65.991 118.734 64.772 119.314C64.34 119.52 63.675 119.652 63.556 119.027C63.452 118.487 62.68 117.803 63.602 117.292C64.005 117.069 64.237 116.65 63.815 116.524C63.057 116.297 62.203 116.262 61.406 116.332C60.826 116.383 60.441 116.784 60.745 117.514C60.866 117.804 60.639 118.125 60.303 118.197C59.884 118.286 59.814 117.952 59.776 117.642C59.639 116.543 58.736 116.288 57.931 115.842C56.685 115.154 55.262 115.148 53.986 114.647C53.154 114.322 52.249 113.757 53.562 112.904C54.503 112.293 54.255 111.445 54.255 110.625C54.255 110.295 54.006 109.94 53.702 110.058C52.77 110.417 51.275 109.939 50.94 111.069C50.206 113.546 49.108 111.868 48.548 111.255C47.2 109.776 45.709 108.981 43.696 109.206C43.074 109.276 42.388 108.81 42.432 108.379C42.637 106.365 41.073 105.999 39.827 105.285C38.309 104.415 37.644 102.011 35.231 102.736C35.168 102.756 35.044 102.595 34.958 102.511C33.074 100.673 30.787 99.412 28.577 98.038C26.777 96.917 25.468 95.449 25.375 93.186Z" fill="#704B42"/>
<path fill-rule="evenodd" clip-rule="evenodd" d="M25.375 93.186C25.467 95.449 26.776 96.917 28.582 98.04C30.792 99.414 33.079 100.675 34.963 102.513C35.05 102.597 35.173 102.757 35.236 102.738C37.649 102.012 38.314 104.417 39.832 105.287C41.078 106.001 42.642 106.367 42.437 108.381C42.393 108.813 43.08 109.278 43.701 109.208C45.714 108.982 47.205 109.777 48.553 111.257C49.113 111.87 50.211 113.548 50.945 111.071C51.28 109.941 52.776 110.42 53.707 110.06C54.011 109.943 54.26 110.297 54.26 110.627C54.26 111.447 54.509 112.295 53.567 112.906C52.254 113.76 53.159 114.324 53.991 114.649C55.267 115.15 56.69 115.156 57.936 115.844C58.741 116.289 59.644 116.545 59.781 117.644C59.82 117.954 59.889 118.288 60.308 118.199C60.644 118.128 60.871 117.806 60.75 117.516C60.446 116.787 60.831 116.385 61.411 116.334C62.208 116.265 63.062 116.3 63.82 116.526C64.242 116.652 64.01 117.071 63.607 117.294C62.685 117.806 63.457 118.489 63.561 119.029C63.681 119.654 64.345 119.522 64.777 119.316C65.996 118.737 66.889 119.395 67.772 120.047C68.221 120.379 68.333 120.876 67.902 121.309C67.401 121.81 67.305 121.181 66.987 120.997C66.205 120.541 65.361 119.776 64.427 120.941C63.887 121.615 63.521 120.695 63.063 120.551C62.331 120.322 61.44 119.723 61.001 120.685C60.573 121.623 60.824 122.697 62.008 123.04C62.716 123.245 62.881 123.374 62.836 124.214C62.776 125.353 63.033 126.43 64.466 127.084C65.603 127.604 66.733 128.739 67.257 129.881C68.364 132.297 70.523 133.31 72.508 134.631C72.926 134.908 74.065 134.917 73.235 135.938C72.751 135.91 72.194 136.031 71.793 135.834C66.134 133.046 59.761 131.741 54.623 127.941C52.64 126.473 50.458 125.145 48.843 123.198C48.425 122.695 47.892 122.354 47.332 122.244C46.337 122.049 45.747 121.539 45.32 120.647C45.124 120.238 44.667 119.7 44.293 119.67C42.333 119.515 41.674 117.71 40.682 116.586C39.959 115.767 38.787 115.088 38.543 113.796C38.326 112.65 37.515 111.945 36.573 111.294C35.499 110.552 34.344 109.995 33.484 108.834C32.048 106.896 31.295 104.508 29.408 102.864C28.862 102.388 28.081 102.223 27.777 101.301C27.255 99.716 25.803 98.731 24.738 97.498L24.7 97.488C24.716 96.977 24.675 96.499 24.045 96.365C23.806 95.832 23.83 95.104 23.027 94.987C23.042 94.653 23.057 94.319 23.073 93.984C23.352 93.441 23.271 92.888 23.119 92.333C23.134 91.793 23.247 91.277 23.049 90.717C21.77 87.107 22.613 83.759 24.447 80.58C27.76 74.841 32.495 70.35 37.52 66.189C48.05 57.469 60.166 51.849 73.285 48.212C92.394 42.915 111.38 43.049 130.262 49.276C130.543 49.369 130.8 49.539 131.068 49.673C130.708 49.894 130.346 50.114 129.985 50.335C129.623 50.318 129.26 50.301 128.898 50.285C126.537 48.737 123.712 48.419 121.115 47.548C119.422 46.981 117.493 46.762 115.634 46.525C111.74 46.028 107.879 45.257 103.937 45.254C101.087 45.252 98.241 45.369 95.39 45.524C89.716 45.832 84.183 46.946 78.602 47.818C76.551 48.138 74.687 49.096 72.705 49.551C65.788 51.137 59.336 53.859 53.102 57.159C50.87 58.341 48.341 59.048 46.609 61.072C46.504 61.195 46.288 61.229 46.119 61.292C43.832 62.14 41.824 63.328 40.751 65.665C38.217 67.154 35.899 68.922 33.814 70.997C33.473 71.336 33.082 71.625 32.714 71.938C30.268 73.689 28.769 76.287 26.837 78.497C26.264 79.152 25.883 79.857 25.773 80.713L25.772 80.715C24.605 80.901 24.009 81.953 24.072 82.758C24.204 84.427 23.835 85.945 23.476 87.517C23.24 88.551 23.25 89.612 24.708 89.813C25.335 89.872 25.933 89.767 26.502 89.496C26.493 89.722 26.485 89.947 26.476 90.173C26.029 90.316 25.538 90.386 25.145 90.62C24.689 90.891 23.736 90.522 23.879 91.648C24 92.605 24.293 93.237 25.375 93.186Z" fill="#815F59"/>
<path fill-rule="evenodd" clip-rule="evenodd" d="M77.313 137.412C79.625 136.936 81.397 138.61 83.536 138.987C87.817 139.741 92.085 140.324 96.432 140.304C99.884 140.289 103.354 140.491 106.778 140.172C108.18 140.042 109.656 139.499 111.112 139.234C114.522 138.611 118.036 138.378 121.347 137.426C125.363 136.272 129.289 134.759 133.206 133.253C134.948 132.584 136.941 132.301 138.648 131.485C140.443 130.628 142.658 130.537 143.836 128.325C144.411 127.243 146.159 126.966 147.341 126.244C148.963 125.254 149.746 123.829 150.505 122.232C151.072 121.037 151.424 119.655 153.11 119.242C153.77 119.081 154.414 118.307 154.874 117.514C155.995 115.582 157.311 113.766 159.96 113.903C160.166 113.914 160.469 113.804 160.578 113.647C161.671 112.078 162.233 111.497 163.422 110.813C163.496 109.992 161.892 110.607 162.317 109.603C162.582 108.977 163.398 109.081 163.936 108.982C166.333 108.544 167.776 106.625 169.514 105.284C170.739 104.339 172.163 103.631 173.263 102.49C173.686 102.053 174.429 102.311 175.033 102.348C174.752 103.738 173.472 104.61 173.149 105.978C172.105 106.194 170.972 106.307 171.038 107.804L170.968 107.87C170.208 107.595 169.887 108.133 169.532 108.632C168.979 109.408 168.562 110.392 167.822 110.904C165.889 112.242 164.41 114.052 162.668 115.581C161.92 116.237 160.869 116.824 160.76 118.042C160.631 118.175 160.501 118.308 160.372 118.44C159.608 118.377 159.272 118.758 159.276 119.493C158.985 120.193 158.444 120.676 157.825 121.059C153.581 123.686 150.103 127.487 145.23 129.182C144.546 129.42 143.681 130.11 143.48 131.096C138.759 133.499 133.842 135.43 128.769 136.915C121.638 139.003 114.392 140.602 106.966 141.188C98.187 141.883 89.466 141.46 80.85 139.52C79.916 139.309 78.999 139.026 78.075 138.777C77.821 138.324 77.567 137.868 77.313 137.412ZM172.621 105.309C172.638 105.261 172.666 105.213 172.665 105.166C172.665 105.149 172.591 105.136 172.55 105.12C172.533 105.168 172.505 105.216 172.507 105.263C172.507 105.279 172.581 105.293 172.621 105.309Z" fill="#815F59"/>
<path fill-rule="evenodd" clip-rule="evenodd" d="M77.313 137.412C77.567 137.868 77.821 138.324 78.075 138.78C67.63 135.929 57.705 131.925 48.826 125.599C48.646 124.597 47.847 124.076 47.115 123.578C44.657 121.911 42.406 119.978 40.25 117.966C37.492 115.392 34.878 112.695 32.46 109.743C30.418 107.248 28.479 104.675 26.607 102.07C25.68 100.779 24.846 99.231 24.736 97.499C25.801 98.732 27.253 99.717 27.775 101.302C28.079 102.225 28.859 102.39 29.406 102.865C31.293 104.509 32.046 106.896 33.482 108.835C34.342 109.996 35.497 110.553 36.571 111.295C37.513 111.946 38.324 112.651 38.541 113.797C38.786 115.089 39.957 115.768 40.68 116.587C41.672 117.711 42.331 119.516 44.291 119.671C44.665 119.7 45.122 120.238 45.318 120.648C45.745 121.54 46.335 122.049 47.33 122.245C47.89 122.355 48.422 122.696 48.841 123.199C50.457 125.146 52.638 126.474 54.621 127.942C59.759 131.742 66.132 133.046 71.791 135.835C72.192 136.032 72.749 135.911 73.233 135.939C73.523 136.328 73.951 136.317 74.371 136.329C74.797 137.369 75.729 137.309 76.61 137.361C76.846 137.379 77.08 137.396 77.313 137.412Z" fill="#977872"/>
<path fill-rule="evenodd" clip-rule="evenodd" d="M129.983 50.336C130.344 50.115 130.706 49.895 131.066 49.674C131.325 49.759 131.584 49.845 131.841 49.93C132.14 50.623 132.54 51.007 133.265 50.395C133.518 50.49 133.771 50.585 134.024 50.68C134.229 51.086 134.564 51.096 134.941 50.985C135.361 51.139 135.781 51.293 136.201 51.447C136.442 51.895 136.853 51.873 137.271 51.833C138.746 52.434 140.22 53.034 141.696 53.634C142.249 54.639 143.19 54.781 144.204 54.764C144.359 54.827 144.516 54.89 144.672 54.953C144.786 55.564 145.255 55.496 145.693 55.487C146.065 55.66 146.437 55.833 146.81 56.007C146.921 56.079 147.034 56.151 147.146 56.222C147.522 56.401 147.898 56.58 148.274 56.76C148.376 56.827 148.478 56.895 148.58 56.963C148.73 57.054 148.881 57.145 149.031 57.236C149.131 57.49 149.316 57.595 149.585 57.556C158.767 62.516 166.642 68.952 172.419 77.76C171.346 77.76 171.178 76.74 170.599 76.173C168.257 73.882 165.938 71.563 163.62 69.253C162.056 67.694 160.293 66.349 158.832 64.692C158.215 63.993 157.264 63.927 156.504 63.527C153.415 61.902 150.862 59.369 147.65 58.075C145.292 57.126 143.458 55.346 141.151 54.482C139.388 53.821 137.557 53.313 135.823 52.551C133.913 51.711 131.775 51.478 129.983 50.336Z" fill="#704B42"/>
<path fill-rule="evenodd" clip-rule="evenodd" d="M24.737 97.5C24.847 99.231 25.681 100.78 26.608 102.071C28.479 104.675 30.418 107.249 32.461 109.744C34.878 112.696 37.493 115.392 40.251 117.967C42.407 119.98 44.658 121.912 47.116 123.579C47.848 124.076 48.647 124.598 48.827 125.6C46.054 124.409 43.897 122.326 41.613 120.465C34.596 114.752 28.594 108.129 24.237 100.141C23.39 98.589 22.572 96.903 23.029 94.986C23.83 95.104 23.807 95.832 24.045 96.366C23.922 96.94 24.143 97.313 24.701 97.488L24.737 97.5Z" fill="#A58986"/>
<path fill-rule="evenodd" clip-rule="evenodd" d="M160.371 118.442C160.5 118.309 160.63 118.176 160.758 118.044C164.916 115.411 168.697 112.4 170.967 107.872C170.967 107.872 171.037 107.806 171.035 107.806C171.889 107.963 172.339 107.141 173.056 106.969L173.164 107.07C170.701 111.123 167.272 114.329 163.878 117.548C158 123.123 151.206 127.369 144.004 131C143.851 131.077 143.655 131.068 143.479 131.1C143.68 130.114 144.545 129.424 145.229 129.186C150.102 127.491 153.58 123.69 157.824 121.063C158.443 120.679 158.984 120.197 159.274 119.497C159.938 119.454 160.299 119.099 160.371 118.442Z" fill="#A58986"/>
<path fill-rule="evenodd" clip-rule="evenodd" d="M173.148 105.979C173.471 104.611 174.751 103.739 175.032 102.349C175.79 101.616 175.978 100.576 176.462 99.695C177.304 100.466 176.542 101.274 176.301 101.863C175.532 103.741 174.53 105.526 173.165 107.069L173.057 106.968C173.088 106.64 173.118 106.31 173.148 105.979Z" fill="#A58986"/>
<path fill-rule="evenodd" clip-rule="evenodd" d="M176.226 84.756C174.615 84.156 174.55 82.82 174.635 81.414C175.427 82.403 175.873 83.557 176.226 84.756Z" fill="#704B42"/>
<path fill-rule="evenodd" clip-rule="evenodd" d="M177.4 88.404C176.602 87.578 175.891 86.724 176.451 85.46C177.011 86.363 177.242 87.372 177.4 88.404Z" fill="#704B42"/>
<path fill-rule="evenodd" clip-rule="evenodd" d="M174.631 81.406C173.43 80.981 173.252 79.955 173.152 78.884C173.865 79.596 174.333 80.451 174.631 81.406Z" fill="#704B42"/>
<path fill-rule="evenodd" clip-rule="evenodd" d="M144.204 54.764C143.19 54.781 142.249 54.639 141.696 53.634C142.634 53.784 143.468 54.166 144.204 54.764Z" fill="#815F59"/>
<path fill-rule="evenodd" clip-rule="evenodd" d="M177.74 91.329C177.157 91.059 176.574 90.789 175.897 90.476C176.683 89.959 177.224 90.629 177.829 90.581C177.8 90.831 177.77 91.08 177.74 91.329Z" fill="#704B42"/>
<path fill-rule="evenodd" clip-rule="evenodd" d="M133.266 50.396C132.541 51.008 132.141 50.624 131.842 49.931C132.371 49.918 132.858 50.035 133.266 50.396Z" fill="#815F59"/>
<path fill-rule="evenodd" clip-rule="evenodd" d="M173.138 78.864C172.395 78.831 172.376 78.327 172.431 77.775C172.846 78.021 173.062 78.397 173.138 78.864Z" fill="#704B42"/>
<path fill-rule="evenodd" clip-rule="evenodd" d="M23.119 92.333C23.271 92.888 23.352 93.44 23.073 93.984C22.747 93.424 22.737 92.873 23.119 92.333Z" fill="#A58986"/>
<path fill-rule="evenodd" clip-rule="evenodd" d="M137.271 51.833C136.853 51.873 136.442 51.895 136.201 51.447C136.622 51.397 136.984 51.511 137.271 51.833Z" fill="#815F59"/>
<path fill-rule="evenodd" clip-rule="evenodd" d="M145.693 55.487C145.255 55.496 144.786 55.564 144.672 54.953C145.059 55.042 145.443 55.136 145.693 55.487Z" fill="#815F59"/>
<path fill-rule="evenodd" clip-rule="evenodd" d="M134.941 50.985C134.564 51.096 134.229 51.086 134.024 50.68C134.376 50.645 134.695 50.703 134.941 50.985Z" fill="#815F59"/>
<path fill-rule="evenodd" clip-rule="evenodd" d="M149.585 57.555C149.316 57.594 149.131 57.489 149.031 57.235C149.216 57.341 149.4 57.448 149.585 57.555Z" fill="#815F59"/>
<path fill-rule="evenodd" clip-rule="evenodd" d="M148.58 56.961C148.478 56.894 148.376 56.826 148.274 56.758C148.376 56.826 148.479 56.894 148.58 56.961Z" fill="#815F59"/>
<path fill-rule="evenodd" clip-rule="evenodd" d="M147.146 56.221C147.034 56.15 146.921 56.078 146.81 56.006C146.922 56.078 147.034 56.15 147.146 56.221Z" fill="#815F59"/>
<path fill-rule="evenodd" clip-rule="evenodd" d="M40.749 65.664C41.822 63.327 43.831 62.139 46.117 61.291C46.286 61.229 46.501 61.194 46.607 61.071C48.339 59.047 50.868 58.34 53.1 57.158C59.333 53.858 65.786 51.136 72.703 49.55C74.685 49.095 76.549 48.137 78.6 47.817C84.181 46.945 89.714 45.831 95.388 45.523C98.24 45.368 101.086 45.251 103.935 45.253C107.877 45.257 111.739 46.027 115.632 46.524C117.491 46.761 119.42 46.98 121.113 47.547C123.711 48.418 126.535 48.736 128.896 50.284C128.479 51.666 127.388 52.039 126.184 51.765C124.631 51.412 122.871 51.492 121.733 50.008C121.471 49.668 120.997 49.446 120.642 49.902C120.362 50.262 120.644 50.572 120.95 50.811C121.951 51.592 122.876 52.515 123.977 53.109C124.755 53.529 125.317 53.845 125.268 54.808C125.258 54.989 125.499 55.346 125.625 55.346C127.952 55.347 130.016 56.35 131.964 57.361C133.392 58.102 134.934 58.685 136.235 59.78C137.665 60.986 139.451 61.76 141.017 62.817C142.161 63.588 142.779 65.069 144.389 65.297C144.505 65.314 144.168 66.63 144.607 67.298C145.085 68.025 145.711 68.647 146.228 69.334C147.457 70.966 145.602 71.478 145.413 72.541C144.906 72.45 144.709 72.925 144.665 73.181C144.172 76.062 141.487 77.037 139.539 77.396C137.308 77.807 136.139 79.74 134.07 79.983C133.562 80.043 133.414 80.323 133.253 80.781C132.662 82.457 130.867 83.137 129.147 82.357C128.745 82.175 128.447 81.512 127.947 82.063C127.606 82.438 127.97 82.862 128.139 83.237C128.363 83.734 128.646 84.215 128.309 84.954C127.701 84.428 127.146 83.606 126.271 84.593C125.968 84.934 125.329 84.719 125.223 84.047C125.767 82.988 126.607 81.998 126.014 80.672C126.711 80.68 127.009 80.286 127.055 79.639C128.337 79.112 129.451 78.316 130.616 77.58C131.609 76.953 132.897 77.406 134.141 76.525C135.36 75.661 136.025 75.905 135.912 74.219C135.885 73.796 135.78 73.385 136.431 73.293C137.447 73.15 138.038 72.582 138.035 71.487C138.033 70.985 138.044 70.485 138.838 70.682C140.004 70.973 139.884 70.319 139.611 69.559C139.366 68.876 139.592 68.527 140.299 68.173C141.904 67.367 141.893 66.078 140.503 64.954C137.367 62.42 133.18 61.837 130.06 59.268C129.755 59.017 129.102 59.236 128.639 59.121C127.379 58.807 125.874 58.619 125.178 57.539C124.653 56.723 124.152 56.29 123.364 56.455C122.348 56.668 121.698 56.452 120.956 55.706C120.398 55.145 119.388 54.547 118.72 54.679C116.989 55.02 115.782 53.787 114.271 53.592C112.327 53.342 110.489 52.884 109.565 50.722C109.067 51.332 108.789 52.116 107.961 51.795C105.875 50.986 103.615 52.099 101.537 51.191C101.35 51.109 101.012 51.153 100.848 51.277C99.452 52.337 97.563 52.087 96.131 53.105C95.61 53.476 94.826 53.428 94.236 52.98C93.318 52.283 92.496 52.479 91.569 53.035C90.245 53.827 88.87 54.241 87.233 53.76C86.098 53.427 84.831 53.709 83.619 53.753C82.008 53.813 80.651 55.274 79.301 55.008C75.225 54.205 72.126 56.649 68.837 58.013C66.537 58.967 63.997 59.49 61.866 61.001C60.151 62.218 58.137 63.013 56.264 64.011C56.019 64.142 55.598 64.19 55.646 64.582C55.822 66.017 54.785 66.654 53.9 67.447C53.293 67.992 52.691 68.642 53.522 69.549C53.73 69.776 53.868 70.428 53.733 70.551C51.353 72.725 54.275 72.051 54.733 72.53C53.531 75.544 55.545 77.31 57.048 79.34C57.978 77.855 58.699 77.74 59.746 78.815C60.573 79.663 63.768 80.146 64.663 79.454C65.92 78.482 67.282 78.946 68.549 79.156C69.924 79.384 70.663 82.219 72.646 80.16C73.789 81.291 75.064 80.274 76.27 80.384C75.913 81.211 75.527 82.028 75.211 82.87C75.044 83.314 74.796 83.784 74.344 83.578C73.13 83.024 72.293 83.766 71.33 84.224C70.301 84.715 69.319 84.971 68.503 83.692C68.066 83.007 66.995 83.115 66.357 82.468C65.873 81.976 65.629 82.55 65.643 83.011C65.665 83.778 64.995 84.443 64.617 84.235C62.766 83.215 60.044 84.861 58.719 82.256C58.52 81.863 58.255 80.661 57.222 81.637C56.981 81.865 56.548 81.401 56.359 81.117C55.221 79.406 53.348 78.801 51.717 77.792C51.11 77.417 51.068 76.051 50.88 75.114C50.812 74.775 50.964 74.2 50.555 74.234C48.435 74.412 48.224 72.836 48.296 71.502C48.395 69.663 46.723 69.18 46.054 67.958C45.575 67.084 45.06 66.424 46.143 65.673C46.918 65.135 46.338 64.42 46.018 64.145C45.356 63.577 45.112 64.346 44.91 64.805C44.532 65.664 43.813 66.412 44.029 67.484C44.089 67.78 43.958 68.101 43.587 68.17C43.32 68.22 43.015 68.07 43.049 67.83C43.313 65.999 41.588 66.305 40.749 65.664ZM53.005 76.465C53.068 76.164 52.912 76.044 52.726 76.049C52.576 76.053 52.354 76.14 52.296 76.257C52.194 76.464 52.382 76.605 52.574 76.607C52.727 76.608 52.882 76.509 53.005 76.465Z" fill="#704B42"/>
<path fill-rule="evenodd" clip-rule="evenodd" d="M89.86 70.549C86.303 71.349 83.434 73.379 80.712 75.67C80.063 75.585 79.359 75.63 78.779 75.383C77.979 75.043 77.902 76.688 77.159 75.918C76.526 75.263 75.68 75.068 74.932 74.729C72.881 73.799 71.135 71.952 68.505 72.599C67.903 72.747 66.968 72.481 67.362 71.316C67.533 70.809 67.322 70.458 66.696 70.671C66.174 70.848 65.957 70.543 65.684 70.163C63.782 67.52 67.126 66.683 67.497 64.829C67.566 64.484 67.786 64.316 68.128 64.294C68.189 64.291 68.263 64.264 68.308 64.289C69.329 64.848 69.943 63.821 70.77 63.671C72.04 63.442 72.916 61.668 74.529 62.723C74.666 62.812 75.138 62.593 75.31 62.392C76.012 61.573 77.091 61.289 77.956 60.885C78.93 60.431 80.023 59.337 81.041 59.749C82.319 60.268 83.055 59.813 83.94 59.164C85.032 58.364 86.461 57.433 87.579 57.952C89.149 58.68 90.506 58.096 91.94 58.079C94.331 58.051 96.726 57.472 99.066 57.474C101.292 57.476 103.626 57.957 105.836 58.729C107.707 59.383 109.585 60.085 111.68 59.916C112.816 59.824 113.018 60.3 112.434 61.041C112.279 61.237 112.065 61.388 112.181 61.648C112.415 62.172 112.793 61.847 113.103 61.752C115.431 61.046 117.257 61.397 118.272 63.927C118.45 64.371 119.297 64.901 119.813 64.401C120.342 63.888 119.401 63.71 119.235 63.315C119.196 63.223 119.244 63.095 119.259 62.879C120.3 62.78 120.759 63.51 121.127 64.25C121.309 64.617 121.264 65.096 120.728 65.304C120.389 65.435 119.676 65.318 119.999 65.992C120.229 66.471 120.757 66.759 121.374 66.619C122.885 66.276 122.937 66.322 123.103 68.139C121.55 67.539 121.384 67.631 121.707 69.159C121.85 69.827 122.038 70.315 121.169 70.557C120.624 70.709 120.477 71.201 120.488 71.724C120.506 72.528 120.134 72.984 119.328 73.071C117.394 72.332 115.637 71.137 113.534 70.836C111.184 68.979 108.24 69.236 105.546 68.652C101.987 67.881 98.4 68.44 94.9 69.112C93.211 69.437 91.224 69.009 89.86 70.549Z" fill="#A58986"/>
<path fill-rule="evenodd" clip-rule="evenodd" d="M76.269 80.392C75.063 80.282 73.788 81.299 72.645 80.168C70.663 82.227 69.924 79.392 68.548 79.164C67.281 78.955 65.919 78.49 64.662 79.462C63.768 80.154 60.572 79.67 59.745 78.823C58.698 77.748 57.977 77.863 57.047 79.348C55.544 77.319 53.53 75.552 54.732 72.538C54.274 72.059 51.353 72.734 53.732 70.559C53.867 70.435 53.729 69.783 53.521 69.557C52.691 68.65 53.293 68 53.9 67.455C54.784 66.662 55.822 66.024 55.646 64.59C55.598 64.197 56.019 64.15 56.264 64.019C58.137 63.02 60.15 62.226 61.866 61.009C63.997 59.498 66.537 58.974 68.837 58.021C72.126 56.657 75.225 54.213 79.301 55.016C80.651 55.283 82.009 53.821 83.619 53.761C84.83 53.717 86.098 53.435 87.233 53.768C88.87 54.248 90.246 53.835 91.569 53.043C92.496 52.487 93.318 52.291 94.236 52.988C94.826 53.436 95.61 53.483 96.131 53.113C97.563 52.094 99.452 52.344 100.848 51.285C101.012 51.161 101.35 51.118 101.537 51.199C103.615 52.107 105.875 50.993 107.961 51.803C108.789 52.124 109.067 51.341 109.565 50.73C110.489 52.893 112.327 53.35 114.271 53.6C115.782 53.795 116.989 55.028 118.72 54.687C119.388 54.555 120.399 55.153 120.956 55.714C121.698 56.459 122.349 56.675 123.364 56.463C124.152 56.298 124.653 56.731 125.178 57.547C125.874 58.627 127.379 58.814 128.639 59.129C129.102 59.244 129.755 59.025 130.06 59.276C133.18 61.844 137.368 62.428 140.503 64.962C141.893 66.086 141.904 67.375 140.299 68.181C139.593 68.535 139.366 68.884 139.611 69.567C139.883 70.327 140.004 70.981 138.838 70.69C138.044 70.492 138.033 70.993 138.035 71.495C138.038 72.589 137.446 73.158 136.431 73.301C135.781 73.393 135.885 73.804 135.912 74.227C136.024 75.913 135.359 75.669 134.141 76.533C132.897 77.414 131.609 76.96 130.616 77.588C129.452 78.324 128.338 79.12 127.055 79.647C126.567 79.514 126.078 79.381 125.589 79.248L125.601 79.26C126.057 77.526 123.997 77.334 123.656 76.088C124.585 76.314 125.421 76.741 126.167 75.492C126.653 74.677 128.197 75.074 128.746 73.924C129.223 72.926 129.921 72.354 131.116 73.5C130.264 72.305 130.047 71.389 131.074 70.318C131.519 69.853 131.943 69.055 132.077 68.467C132.28 67.571 134.285 65.961 131.461 65.604C131.247 65.577 131.149 64.981 130.911 64.729C130.299 64.078 129.933 62.904 128.976 62.929C127.441 62.969 126.784 61.902 125.872 61.078C125.482 60.725 125.082 59.864 124.436 60.695C123.195 62.296 122.023 61.676 120.743 60.766C120.264 60.425 119.592 60.053 119.07 60.129C116.94 60.439 115.667 58.628 113.869 58.074C112.572 57.674 111.425 56.762 109.916 56.95C109.145 57.046 108.617 56.804 108.151 56.049C107.762 55.419 106.926 55.246 106.098 55.088C103.308 54.552 100.404 55.637 97.669 54.428C97.318 54.273 96.753 54.291 96.417 54.471C95.01 55.224 93.665 55.143 92.06 55.09C89.262 54.996 86.384 55.843 83.619 56.519C82.307 56.84 80.997 57.602 79.575 57.843C75.476 58.54 71.413 59.319 68.317 62.463C68.044 62.74 67.667 62.874 67.311 62.7C66.335 62.223 65.57 62.786 64.748 63.141C63.324 63.755 61.754 64.171 61.178 65.886C58.196 66.35 58.816 69.301 57.664 71.027C57.459 71.334 57.455 71.944 57.905 72.173C60.093 73.28 61.776 75.509 64.644 75.141C65.214 75.068 65.742 75.431 66.029 76.116C66.441 77.096 68.103 76.958 68.162 76.864C69.147 75.271 70.022 76.978 70.914 76.919C71.163 76.903 71.427 77.305 71.827 77.385C73.663 77.754 75.626 77.825 77.036 79.339C76.781 79.687 76.525 80.039 76.269 80.392Z" fill="#815F59"/>
<path fill-rule="evenodd" clip-rule="evenodd" d="M77.037 79.333C75.627 77.819 73.664 77.748 71.828 77.379C71.429 77.299 71.164 76.897 70.915 76.913C70.023 76.973 69.148 75.265 68.163 76.858C68.104 76.952 66.442 77.09 66.03 76.11C65.742 75.425 65.215 75.062 64.645 75.135C61.777 75.503 60.094 73.274 57.906 72.167C57.456 71.939 57.461 71.328 57.665 71.021C58.816 69.294 58.197 66.344 61.179 65.88C61.755 64.165 63.325 63.75 64.749 63.135C65.571 62.781 66.336 62.218 67.312 62.694C67.668 62.868 68.045 62.734 68.318 62.457C71.414 59.312 75.477 58.534 79.576 57.837C80.999 57.595 82.308 56.834 83.62 56.513C86.386 55.837 89.264 54.99 92.061 55.084C93.666 55.138 95.012 55.219 96.418 54.465C96.754 54.285 97.319 54.267 97.67 54.422C100.404 55.631 103.309 54.546 106.099 55.082C106.927 55.241 107.763 55.413 108.152 56.043C108.618 56.798 109.145 57.04 109.917 56.944C111.426 56.756 112.573 57.668 113.87 58.068C115.668 58.622 116.941 60.433 119.071 60.123C119.592 60.047 120.265 60.419 120.744 60.76C122.024 61.67 123.196 62.289 124.437 60.689C125.083 59.857 125.483 60.719 125.873 61.072C126.784 61.896 127.441 62.963 128.977 62.923C129.934 62.898 130.299 64.071 130.912 64.723C131.149 64.975 131.248 65.571 131.462 65.598C134.286 65.955 132.281 67.565 132.078 68.461C131.944 69.049 131.52 69.847 131.075 70.312C130.048 71.382 130.265 72.299 131.117 73.494C129.922 72.348 129.223 72.921 128.747 73.918C128.198 75.067 126.654 74.67 126.168 75.486C125.422 76.735 124.586 76.308 123.657 76.081C123.242 75.735 122.77 75.477 122.321 75.19C121.295 74.535 119.845 74.436 119.326 73.068C120.133 72.981 120.505 72.525 120.487 71.721C120.475 71.198 120.623 70.705 121.168 70.554C122.037 70.311 121.849 69.824 121.706 69.156C121.383 67.628 121.549 67.536 123.102 68.136C122.937 66.32 122.884 66.274 121.373 66.616C120.756 66.756 120.228 66.469 119.998 65.989C119.676 65.315 120.389 65.432 120.727 65.301C121.263 65.093 121.308 64.614 121.126 64.247C120.758 63.507 120.299 62.777 119.258 62.876C119.242 63.092 119.195 63.22 119.234 63.312C119.4 63.707 120.341 63.885 119.812 64.398C119.296 64.898 118.449 64.368 118.271 63.924C117.256 61.393 115.43 61.043 113.102 61.749C112.792 61.843 112.414 62.168 112.18 61.645C112.064 61.384 112.278 61.234 112.433 61.038C113.017 60.297 112.815 59.822 111.679 59.913C109.584 60.082 107.706 59.38 105.835 58.726C103.625 57.954 101.291 57.473 99.065 57.471C96.725 57.469 94.33 58.048 91.939 58.076C90.505 58.092 89.148 58.677 87.578 57.949C86.46 57.43 85.031 58.361 83.939 59.161C83.054 59.81 82.318 60.265 81.04 59.746C80.022 59.333 78.929 60.428 77.955 60.882C77.09 61.286 76.011 61.57 75.309 62.389C75.138 62.589 74.665 62.809 74.528 62.72C72.915 61.665 72.039 63.439 70.769 63.668C69.941 63.818 69.327 64.845 68.307 64.286C68.262 64.261 68.187 64.288 68.127 64.291C67.785 64.313 67.565 64.48 67.496 64.826C67.125 66.68 63.781 67.517 65.683 70.16C65.956 70.539 66.173 70.845 66.695 70.668C67.321 70.455 67.532 70.805 67.361 71.313C66.967 72.478 67.903 72.744 68.504 72.596C71.134 71.95 72.88 73.797 74.931 74.726C75.679 75.065 76.525 75.26 77.158 75.915C77.901 76.685 77.978 75.04 78.778 75.38C79.358 75.627 80.062 75.581 80.711 75.667C79.232 76.635 78.103 77.952 77.037 79.333Z" fill="#977872"/>
<path fill-rule="evenodd" clip-rule="evenodd" d="M81.37 76.6901C83.227 74.4081 85.648 72.966 88.365 71.944C88.856 71.759 89.285 71.409 89.742 71.136C90.609 71.341 91.219 70.649 91.974 70.492C98.885 69.065 105.73 68.909 112.416 71.617C111.316 72.673 110.222 72.671 109.138 71.595C108.79 71.249 108.47 70.837 107.939 71.345C107.562 71.705 106.761 71.9511 107.038 72.5501C107.587 73.7391 106.842 73.9401 106.039 74.2301C104.378 74.8301 103.484 75.958 103.653 77.79L103.66 77.784C102.466 77.556 101.887 78.549 100.825 79.118C101.51 79.234 101.964 79.28 102.402 79.393C103.126 79.58 103.625 79.876 103.76 80.795C103.906 81.792 103.212 81.6801 102.731 81.9251C102.378 82.1031 102.211 82.41 102.199 82.802C101.352 83.048 100.509 83.368 99.631 82.919C99.53 82.792 99.43 82.665 99.33 82.538C99.318 81.929 98.78 81.3971 99.067 80.7451C99.986 79.8601 100.557 78.822 99.304 77.901C98.471 77.288 97.942 78.2471 97.423 78.8001L97.246 78.811L97.076 78.762C96.717 77.88 97.302 76.557 95.207 76.238C96.412 75.947 97.056 75.949 97.561 75.405C96.152 74.618 94.569 74.79 93.108 74.572C91.091 74.27 87.432 77.8761 88.637 79.9251C88.625 80.0541 88.612 80.1841 88.599 80.3131C87.906 80.6101 87.351 81.034 87.205 81.833C86.836 81.823 86.468 81.814 86.1 81.804C85.755 81.797 85.41 81.79 85.065 81.783C85.065 81.783 85.006 81.816 85.007 81.816C85.046 81.304 85.108 80.7901 84.839 80.3131C84.731 79.4541 84.677 78.56 83.578 78.331C83.482 76.917 82.017 77.3551 81.37 76.6901Z" fill="#A58986"/>
<path fill-rule="evenodd" clip-rule="evenodd" d="M103.685 98.947C102.991 99.518 102.086 99.216 101.987 100.021C101.908 100.66 102.667 100.583 102.938 100.871C105.669 103.771 109.425 101.888 112.553 102.965C113.656 103.344 114.998 103.026 116.517 103.026C115.261 104.89 113.385 105.055 111.919 105.43C108.9 106.202 105.778 106.644 102.612 106.706C97.358 106.81 92.474 105.657 87.952 102.971C87.556 102.736 87.186 102.512 87.299 102.017C87.428 101.451 87.961 101.507 88.35 101.585C89.816 101.879 91.151 101.996 92.495 100.944C93.047 100.512 94.122 100.785 94.973 101.024C96.184 101.364 96.881 101.108 96.496 99.575C96.144 98.174 97.236 96.842 99.038 96.238C100.117 95.876 102.175 96.696 102.505 97.788C102.688 98.39 103.1 98.614 103.685 98.947Z" fill="#704B42"/>
<path fill-rule="evenodd" clip-rule="evenodd" d="M103.652 77.79C103.483 75.957 104.377 74.83 106.038 74.23C106.841 73.94 107.586 73.739 107.037 72.55C106.761 71.951 107.561 71.705 107.938 71.345C108.469 70.838 108.79 71.249 109.137 71.595C110.221 72.672 111.316 72.673 112.415 71.617C112.67 71.707 112.925 71.796 113.179 71.886C116.197 72.795 119.071 73.998 121.562 75.982C121.101 76.9 120.121 77.617 120.456 78.843C120.029 79.064 119.698 79.362 119.628 79.869C119.25 80.062 118.844 80.246 119.374 80.712C119.397 80.946 119.422 81.181 119.445 81.415C119.255 83.029 118.384 83.853 117.14 83.663C116.56 83.574 116.455 82.663 115.725 82.908C115.726 82.66 115.728 82.412 115.729 82.164C115.73 81.559 115.732 80.954 115.733 80.349C116.693 79.97 117.045 78.974 116.538 78.407C116.134 77.956 116.041 76.675 115.032 77.072C113.673 77.607 112.544 77.101 111.452 76.519C108.832 75.122 107.265 75.666 106.188 78.466C104.841 78.658 105.073 79.849 104.771 80.703C104.718 81.456 104.853 82.242 104.391 82.924C103.683 82.457 102.865 84 102.197 82.804C102.21 82.411 102.377 82.104 102.729 81.926C103.21 81.681 103.905 81.793 103.758 80.796C103.622 79.878 103.123 79.581 102.4 79.394C101.962 79.281 101.508 79.235 100.823 79.119C101.885 78.55 102.464 77.557 103.658 77.785C103.706 77.813 103.754 77.842 103.802 77.87C103.753 77.843 103.703 77.817 103.652 77.79Z" fill="#977872"/>
<path fill-rule="evenodd" clip-rule="evenodd" d="M26.474 90.172C26.483 89.946 26.491 89.721 26.5 89.495C27.156 89.075 27.894 89.132 28.624 89.122C32.808 89.066 36.974 88.867 41.046 87.768C42.47 87.383 43.924 87.773 45.36 87.756C50.444 87.696 55.531 87.414 60.591 87.144C64.422 86.94 68.255 87.679 72.133 86.715C74.556 86.113 77.278 86.667 79.862 86.345C80.633 86.249 81.053 86.841 80.986 87.661C80.892 87.692 80.797 87.714 80.699 87.727C80.462 87.265 80.182 87.024 79.563 87.06C77.347 87.186 75.118 87.125 72.908 87.307C71.191 87.449 69.423 87.372 67.779 88.058C66.254 88.073 64.728 88.087 63.202 88.102C62.644 87.414 61.848 87.584 61.178 87.68C59.266 87.954 57.353 88.049 55.426 88.019C55.103 88.014 54.68 87.892 54.47 88.439C54.923 88.98 55.54 88.702 56.088 88.728C56.226 88.994 56.363 89.259 56.5 89.525C54.217 90.043 51.976 89.645 49.655 89.39C49.768 89.109 49.783 88.949 49.852 88.922C50.324 88.732 51.27 89.629 51.251 88.561C51.238 87.834 50.345 88.431 49.877 88.413C49.29 88.39 47.913 87.803 48.625 89.471C48.646 89.52 48.357 89.803 48.278 89.777C47.322 89.467 46.281 90.141 45.274 89.585C45.799 88.654 47.071 89.669 47.511 88.398C45.063 88.541 42.704 88.622 40.357 88.829C37.049 89.12 33.754 89.578 30.443 89.813C29.116 89.908 27.829 90.444 26.474 90.172Z" fill="#704B42"/>
<path fill-rule="evenodd" clip-rule="evenodd" d="M113.18 71.886C112.926 71.796 112.671 71.707 112.416 71.617C105.73 68.91 98.885 69.066 91.974 70.493C91.218 70.649 90.608 71.341 89.742 71.137C89.781 70.943 89.82 70.75 89.859 70.553C91.224 69.01 93.211 69.438 94.898 69.114C98.398 68.441 101.985 67.883 105.544 68.654C108.238 69.237 111.183 68.981 113.532 70.838C113.415 71.186 113.298 71.536 113.18 71.886Z" fill="#704B42"/>
<path fill-rule="evenodd" clip-rule="evenodd" d="M88.634 79.923C87.429 77.875 91.088 74.269 93.105 74.57C94.565 74.788 96.149 74.616 97.558 75.403C97.053 75.947 96.409 75.945 95.204 76.236C97.299 76.556 96.714 77.879 97.073 78.76C96.7 79.166 96.328 79.572 95.956 79.978C95.076 79.978 93.686 79.132 94.007 81.157C94.017 81.222 93.629 81.351 93.426 81.449C93.477 80.512 93.137 79.522 93.798 78.669C94.441 77.838 93.876 77.203 93.433 76.58C93.103 76.116 92.571 75.731 92.058 76.146C91.413 76.667 89.893 76.279 90.209 77.838C90.153 78.155 90.098 78.473 90.042 78.792C89.43 78.946 89.271 79.51 88.985 79.959C88.867 79.963 88.75 79.95 88.634 79.923ZM94.297 75.918C94.392 75.87 94.486 75.822 94.58 75.774C94.536 75.736 94.491 75.667 94.448 75.668C94.335 75.67 94.223 75.703 94.11 75.723C94.173 75.788 94.235 75.853 94.297 75.918Z" fill="#977872"/>
<path fill-rule="evenodd" clip-rule="evenodd" d="M154.216 88.634C151.086 89.657 127.881 89.29 126.64 88.017C136.073 88.423 145.146 88.312 154.216 88.634Z" fill="#704B42"/>
<path fill-rule="evenodd" clip-rule="evenodd" d="M81.37 76.69C82.017 77.355 83.482 76.917 83.576 78.328C82.197 78.769 81.914 79.813 82.059 81.092C80.872 80.409 79.968 81.327 79.78 82.058C79.583 82.827 80.7 82.895 81.418 82.934C81.539 82.94 81.66 82.957 81.781 82.969C81.37 83.784 80.602 83.632 79.902 83.661C78.839 83.182 78.048 81.905 76.607 82.536C76.681 81.92 76.828 81.349 77.491 81.09C77.706 81.006 78.1 80.897 78.097 80.812C78 78.481 80.083 77.903 81.37 76.69Z" fill="#815F59"/>
<path fill-rule="evenodd" clip-rule="evenodd" d="M120.456 78.844C120.121 77.618 121.102 76.901 121.562 75.983C122.976 76.991 124.011 78.466 125.601 79.256L125.589 79.244C125.732 79.722 125.872 80.2 126.014 80.677C126.607 82.002 125.767 82.992 125.223 84.052C124.676 84.031 124.16 83.93 123.771 83.495C124.908 83.288 124.731 82.519 124.47 81.77C123.976 80.349 123.091 81.494 122.382 81.479C122.411 80.11 122.382 78.783 120.456 78.844Z" fill="#815F59"/>
<path fill-rule="evenodd" clip-rule="evenodd" d="M115.726 82.908C116.456 82.664 116.561 83.575 117.141 83.663C118.385 83.853 119.255 83.03 119.446 81.416C119.81 81.472 120.22 81.4 120.468 81.782C120.588 82.952 120.696 84.132 122.332 84.061C122.59 86.241 124.264 84.842 125.389 85.221C124.685 85.865 123.653 86.079 123.605 87.632C122.957 86.307 122.551 85.214 121.256 86.112C120.881 86.372 120.898 86.011 120.86 85.817C120.513 84.016 119.653 85.138 118.931 85.473C118.345 85.433 117.712 85.66 117.202 85.175C117.223 84.086 115.045 84.427 115.726 82.908Z" fill="#704B42"/>
<path fill-rule="evenodd" clip-rule="evenodd" d="M63.202 88.103C64.727 88.088 66.253 88.074 67.779 88.059C68.426 88.18 69.089 88.456 69.718 88.394C72.322 88.139 74.932 88.112 77.54 87.986C78.585 87.935 79.707 88.464 80.699 87.728C80.797 87.715 80.892 87.693 80.986 87.662C81.436 87.704 81.609 88.011 81.694 88.401C81.685 88.517 81.687 88.633 81.702 88.749C81.471 88.767 81.24 88.786 81.008 88.804C80.747 88.812 80.486 88.821 80.225 88.829C77.773 88.528 75.351 89.085 72.911 89.081C71.217 88.855 69.522 88.444 67.83 89.093C66.237 89.072 64.635 89.217 63.065 88.809C63.067 88.672 63.07 88.535 63.073 88.398C63.108 88.297 63.151 88.198 63.202 88.103Z" fill="#977872"/>
<path fill-rule="evenodd" clip-rule="evenodd" d="M101.645 85.023C103.304 85.14 104.309 85.652 104.257 86.82C104.209 87.906 103.805 89.138 102.241 89.11C101.019 89.088 99.288 87.724 99.704 86.914C100.129 86.088 100.766 84.895 101.645 85.023ZM102.917 87.088C102.879 86.611 102.629 86.314 102.149 86.257C101.715 86.206 101.479 86.452 101.442 86.863C101.396 87.371 101.661 87.646 102.167 87.663C102.562 87.676 102.867 87.544 102.917 87.088Z" fill="#815F59"/>
<path fill-rule="evenodd" clip-rule="evenodd" d="M24.706 89.812C23.248 89.611 23.238 88.55 23.474 87.516C23.833 85.944 24.203 84.427 24.07 82.757C24.007 81.952 24.603 80.899 25.77 80.714C25.821 83.02 24.916 85.156 24.524 87.383C24.367 88.277 24.456 89.017 24.706 89.812Z" fill="#704B42"/>
<path fill-rule="evenodd" clip-rule="evenodd" d="M25.771 80.711C25.882 79.855 26.263 79.15 26.835 78.495C28.768 76.285 30.267 73.688 32.712 71.936C33.118 73.824 31.081 74.133 30.45 75.398C29.527 77.249 27.397 78.269 26.744 80.389C26.624 80.783 26.13 80.695 25.771 80.711Z" fill="#704B42"/>
<path fill-rule="evenodd" clip-rule="evenodd" d="M122.332 84.061C120.695 84.132 120.588 82.953 120.468 81.783C121.134 81.854 121.893 82.512 122.383 81.479C123.092 81.494 123.977 80.349 124.471 81.77C124.732 82.52 124.909 83.288 123.772 83.495C123.573 83.471 123.373 83.447 123.171 83.426C123.022 83.183 122.843 82.904 122.53 83.086C122.411 83.156 122.437 83.474 122.396 83.678C122.375 83.805 122.354 83.933 122.332 84.061Z" fill="#977872"/>
<path fill-rule="evenodd" clip-rule="evenodd" d="M93.427 81.451C93.629 81.352 94.018 81.223 94.008 81.159C93.687 79.135 95.076 79.98 95.957 79.98C96.04 80.448 96.124 80.916 96.207 81.384C95.943 82.078 95.045 82.963 96.713 83.08C96.662 83.16 96.654 83.242 96.69 83.325C96.389 83.496 96.089 83.667 95.788 83.84C95.149 83.139 94.395 82.667 93.413 82.649C93.135 82.245 94.369 81.861 93.427 81.451Z" fill="#A58986"/>
<path fill-rule="evenodd" clip-rule="evenodd" d="M44.215 89.921C41.465 89.983 38.781 91.182 35.983 90.391C37.594 89.427 43.52 89.088 44.215 89.921Z" fill="#704B42"/>
<path fill-rule="evenodd" clip-rule="evenodd" d="M90.042 78.792C90.098 78.474 90.153 78.156 90.208 77.838C92.634 77.764 93.106 78.054 92.561 79.586C92.196 80.61 92.294 81.552 92.318 82.544L92.247 82.606C92.046 82.592 91.845 82.578 91.644 82.564C91.624 82.201 91.605 81.837 91.586 81.474C91.568 80.294 92.005 78.853 90.042 78.792Z" fill="#704B42"/>
<path fill-rule="evenodd" clip-rule="evenodd" d="M110.036 86.931C109.177 87.069 108.591 86.671 108.477 85.735C108.41 85.178 108.839 84.624 109.299 84.912C110.051 85.384 111.481 84.379 111.628 85.893C111.725 86.882 110.875 86.95 110.036 86.931Z" fill="#704B42"/>
<path fill-rule="evenodd" clip-rule="evenodd" d="M88.634 79.923C88.75 79.95 88.867 79.963 88.986 79.96C88.976 80.546 89.524 80.78 89.77 81.205C89.663 81.392 89.556 81.578 89.448 81.765C88.987 82.004 89.012 82.438 89.006 82.86C87.537 83.44 86.032 84.226 85.028 82.162C85.42 82.15 85.846 82.238 86.096 81.802C86.464 81.812 86.833 81.821 87.201 81.83C87.406 82.205 87.7 82.62 88.137 82.364C88.96 81.881 88.624 81.04 88.595 80.311C88.609 80.182 88.622 80.053 88.634 79.923Z" fill="#815F59"/>
<path fill-rule="evenodd" clip-rule="evenodd" d="M88.377 86.909C87.593 86.909 86.882 86.939 86.175 86.9C85.624 86.869 84.887 87.153 84.698 86.294C84.612 85.899 84.543 85.336 85.058 85.223C85.727 85.076 86.641 84.756 87.041 85.452C87.384 86.046 88.072 86.224 88.377 86.909Z" fill="#704B42"/>
<path fill-rule="evenodd" clip-rule="evenodd" d="M63.072 88.398C63.069 88.535 63.067 88.672 63.064 88.809C60.908 89.347 58.705 89.452 56.498 89.525C56.361 89.259 56.224 88.994 56.086 88.728C58.416 88.619 60.744 88.509 63.072 88.398Z" fill="#815F59"/>
<path fill-rule="evenodd" clip-rule="evenodd" d="M76.605 82.536C78.047 81.905 78.837 83.182 79.9 83.661C79.449 84.307 79.126 85.515 78.196 84.022C78.127 83.912 77.735 83.97 77.501 84.002C76.059 84.206 75.844 83.672 76.605 82.536Z" fill="#704B42"/>
<path fill-rule="evenodd" clip-rule="evenodd" d="M89.007 82.86C89.013 82.438 88.988 82.004 89.448 81.765C89.747 82.815 90.575 83.099 91.527 83.204C91.386 83.962 91.245 84.721 91.131 85.332C89.132 85.575 89.65 83.761 89.007 82.86Z" fill="#704B42"/>
<path fill-rule="evenodd" clip-rule="evenodd" d="M114.968 83.609C115.144 84.645 114.736 85.591 114.518 86.641C113.416 85.739 112.531 84.818 113.103 83.27C113.686 83.596 114.302 83.741 114.968 83.609Z" fill="#704B42"/>
<path fill-rule="evenodd" clip-rule="evenodd" d="M94.596 86.51C93.889 86.442 92.978 86.746 92.895 85.836C92.825 85.08 93.632 84.965 94.227 85.079C94.817 85.192 95.855 84.549 95.881 85.797C95.903 86.796 94.989 86.292 94.596 86.51Z" fill="#977872"/>
<path fill-rule="evenodd" clip-rule="evenodd" d="M84.836 80.311C85.105 80.788 85.043 81.302 85.004 81.814C84.416 81.806 84.236 82.283 84.006 82.678C83.724 83.164 83.329 83.617 82.774 83.438C82.22 83.26 82.517 82.627 82.446 82.192C82.441 81.954 82.436 81.715 82.43 81.477C83.397 81.429 84.232 81.109 84.836 80.311Z" fill="#815F59"/>
<path fill-rule="evenodd" clip-rule="evenodd" d="M97.421 78.8C97.94 78.246 98.468 77.287 99.302 77.901C100.555 78.822 99.984 79.86 99.065 80.745C98.645 79.988 98.843 78.708 97.421 78.8Z" fill="#977872"/>
<path fill-rule="evenodd" clip-rule="evenodd" d="M82.43 81.477C82.435 81.716 82.441 81.954 82.446 82.192C82.224 82.451 82.002 82.709 81.78 82.968C81.659 82.957 81.539 82.94 81.418 82.934C80.701 82.895 79.583 82.826 79.78 82.058C79.968 81.328 80.872 80.41 82.059 81.092C82.183 81.22 82.307 81.349 82.43 81.477Z" fill="#977872"/>
<path fill-rule="evenodd" clip-rule="evenodd" d="M117.202 85.176C117.713 85.661 118.346 85.434 118.931 85.474C118.806 85.923 118.413 86.006 118.06 86.21C117.473 86.548 118.127 86.491 118.251 86.604C118.241 86.796 118.231 86.988 118.221 87.181C117.897 87.171 117.573 87.162 117.247 87.154C117.106 86.534 116.612 86.552 116.134 86.539C115.417 85.243 116.232 85.148 117.202 85.176Z" fill="#815F59"/>
<path fill-rule="evenodd" clip-rule="evenodd" d="M114.968 83.609C114.302 83.741 113.686 83.596 113.103 83.271C113.041 82.805 112.977 82.338 112.915 81.872C113.763 81.291 114.568 80.959 115.119 82.223C115.069 82.685 115.019 83.147 114.968 83.609Z" fill="#977872"/>
<path fill-rule="evenodd" clip-rule="evenodd" d="M93.413 82.647C94.395 82.665 95.149 83.138 95.788 83.838C95.188 83.893 94.56 83.857 93.993 84.025C92.656 84.42 92.23 83.815 92.248 82.606C92.247 82.606 92.318 82.544 92.318 82.544C92.676 82.647 93 83.107 93.413 82.647Z" fill="#704B42"/>
<path fill-rule="evenodd" clip-rule="evenodd" d="M103.784 90.01C102.963 91.211 102.07 90.924 101.296 90.883C100.771 90.855 100.209 90.663 100.062 90.037C100.015 89.836 100.076 89.467 100.21 89.391C100.766 89.075 101.071 89.652 101.419 89.891C102.082 90.345 102.769 90.064 103.784 90.01Z" fill="#704B42"/>
<path fill-rule="evenodd" clip-rule="evenodd" d="M91.527 83.205C90.575 83.1 89.747 82.815 89.448 81.766C89.556 81.579 89.663 81.392 89.771 81.205C90.376 81.294 90.981 81.385 91.586 81.475C91.605 81.838 91.624 82.202 91.644 82.565C91.605 82.778 91.566 82.992 91.527 83.205Z" fill="#977872"/>
<path fill-rule="evenodd" clip-rule="evenodd" d="M108.059 83.288C107.98 84.086 107.96 85.163 106.982 85.134C106.156 85.11 105.652 84.26 105.842 83.281C106.097 83.266 106.353 83.252 106.608 83.238C106.963 83.247 107.32 83.256 107.676 83.265C107.804 83.273 107.931 83.28 108.059 83.288Z" fill="#704B42"/>
<path fill-rule="evenodd" clip-rule="evenodd" d="M112.091 81.835C111.987 84.099 111.717 84.297 109.492 83.749C109.499 83.601 109.506 83.454 109.513 83.307C110.63 83.423 111.172 82.979 110.972 81.811C111.331 81.806 111.691 81.8 112.05 81.793L112.091 81.835Z" fill="#704B42"/>
<path fill-rule="evenodd" clip-rule="evenodd" d="M104.392 82.923C104.854 82.24 104.719 81.455 104.772 80.702C105.485 80.992 106.566 80.146 106.962 81.413C106.221 81.424 105.703 81.654 105.851 82.54L105.707 82.566C105.185 82.374 105.073 83.704 104.392 82.923Z" fill="#704B42"/>
<path fill-rule="evenodd" clip-rule="evenodd" d="M67.83 89.093C69.522 88.445 71.217 88.856 72.911 89.081C72.869 89.251 72.799 89.573 72.79 89.572C71.149 89.269 69.414 89.926 67.83 89.093Z" fill="#704B42"/>
<path fill-rule="evenodd" clip-rule="evenodd" d="M96.689 83.324C96.653 83.241 96.661 83.159 96.712 83.078C96.705 82.557 96.606 82.017 97.055 81.605C98.159 81.611 98.75 82.073 98.523 83.26C97.769 83.051 97.451 83.979 96.761 83.938C96.738 83.733 96.713 83.529 96.689 83.324Z" fill="#977872"/>
<path fill-rule="evenodd" clip-rule="evenodd" d="M106.742 91.829C107.397 92.091 108.023 92.328 108.012 93.161C108.008 93.498 107.851 93.807 107.5 93.704C106.92 93.535 106.115 93.537 106.232 92.558C106.275 92.204 106.266 91.832 106.742 91.829Z" fill="#704B42"/>
<path fill-rule="evenodd" clip-rule="evenodd" d="M115.263 94.607C114.376 94.177 113.383 94.417 113.197 93.284C113.151 93.008 113.13 92.637 113.581 92.674C114.533 92.752 115.087 93.274 115.263 94.607Z" fill="#704B42"/>
<path fill-rule="evenodd" clip-rule="evenodd" d="M115.119 82.223C114.568 80.959 113.763 81.291 112.915 81.872C112.64 81.86 112.364 81.847 112.091 81.835C112.091 81.835 112.05 81.793 112.05 81.794C112.146 81.553 112.24 81.311 112.335 81.07C113.366 80.92 114.603 81.628 115.365 80.347C115.487 80.347 115.61 80.348 115.733 80.349C115.732 80.954 115.73 81.559 115.729 82.164C115.526 82.183 115.322 82.203 115.119 82.223Z" fill="#704B42"/>
<path fill-rule="evenodd" clip-rule="evenodd" d="M109.513 83.307C109.506 83.453 109.499 83.6 109.492 83.748C109.015 83.637 108.522 83.665 108.316 82.986C108.234 82.715 108.136 83.158 108.058 83.287C107.93 83.28 107.803 83.272 107.675 83.265C107.674 82.661 107.673 82.056 107.673 81.452L107.83 81.43L107.99 81.431C108.868 81.756 108.756 82.884 109.513 83.307Z" fill="#815F59"/>
<path fill-rule="evenodd" clip-rule="evenodd" d="M96.762 83.938C97.452 83.98 97.769 83.051 98.524 83.26C98.588 84.132 97.946 84.403 97.305 84.59C96.78 84.742 96.739 84.328 96.762 83.938Z" fill="#704B42"/>
<path fill-rule="evenodd" clip-rule="evenodd" d="M97.056 81.605C96.606 82.018 96.705 82.558 96.713 83.078C95.045 82.962 95.943 82.078 96.207 81.383C96.491 81.457 96.773 81.531 97.056 81.605Z" fill="#704B42"/>
<path fill-rule="evenodd" clip-rule="evenodd" d="M116.135 86.538C116.614 86.551 117.108 86.533 117.248 87.153C116.686 87.296 116.148 87.392 116.135 86.538Z" fill="#704B42"/>
<path fill-rule="evenodd" clip-rule="evenodd" d="M118.222 87.18C118.233 86.987 118.243 86.795 118.252 86.603C118.594 86.608 119.09 86.612 119.046 87.01C118.996 87.474 118.521 87.187 118.222 87.18Z" fill="#704B42"/>
<path fill-rule="evenodd" clip-rule="evenodd" d="M122.396 83.677C122.437 83.472 122.411 83.155 122.53 83.085C122.842 82.903 123.021 83.182 123.171 83.425C122.913 83.508 122.655 83.593 122.396 83.677Z" fill="#704B42"/>
<path fill-rule="evenodd" clip-rule="evenodd" d="M80.224 88.83C80.485 88.822 80.746 88.812 81.007 88.805C80.966 89.041 80.923 89.312 80.631 89.323C80.333 89.333 80.282 89.06 80.224 88.83Z" fill="#704B42"/>
<path fill-rule="evenodd" clip-rule="evenodd" d="M106.607 83.238C106.352 83.253 106.096 83.267 105.841 83.282C105.797 83.044 105.753 82.806 105.707 82.568C105.706 82.568 105.85 82.541 105.85 82.541C106.301 82.558 106.575 82.766 106.607 83.238Z" fill="#815F59"/>
<path fill-rule="evenodd" clip-rule="evenodd" d="M86.097 81.802C85.847 82.239 85.421 82.15 85.029 82.162C85.04 82.035 85.051 81.908 85.062 81.781C85.407 81.788 85.752 81.794 86.097 81.802Z" fill="#977872"/>
<path fill-rule="evenodd" clip-rule="evenodd" d="M99.328 82.538C99.429 82.665 99.529 82.792 99.629 82.919C99.409 82.886 99.3 82.766 99.328 82.538Z" fill="#977872"/>
<path fill-rule="evenodd" clip-rule="evenodd" d="M81.701 88.75C81.686 88.634 81.684 88.518 81.693 88.402C81.984 88.511 82.016 88.626 81.701 88.75Z" fill="#704B42"/>
<path fill-rule="evenodd" clip-rule="evenodd" d="M76.612 137.362C75.732 137.31 74.799 137.37 74.373 136.33C75.12 136.672 76.236 136.214 76.612 137.362Z" fill="#815F59"/>
<path fill-rule="evenodd" clip-rule="evenodd" d="M24.7 97.488C24.141 97.313 23.921 96.941 24.044 96.366C24.675 96.499 24.716 96.977 24.7 97.488Z" fill="#977872"/>
<path fill-rule="evenodd" clip-rule="evenodd" d="M170.967 107.872C168.697 112.4 164.916 115.411 160.758 118.044C160.868 116.826 161.919 116.239 162.667 115.583C164.409 114.055 165.889 112.244 167.821 110.906C168.561 110.393 168.978 109.41 169.531 108.634C169.886 108.135 170.207 107.597 170.967 107.872Z" fill="#977872"/>
<path fill-rule="evenodd" clip-rule="evenodd" d="M173.148 105.979C173.118 106.309 173.087 106.639 173.056 106.968C172.338 107.14 171.888 107.962 171.035 107.805C170.972 106.309 172.104 106.195 173.148 105.979Z" fill="#977872"/>
<path fill-rule="evenodd" clip-rule="evenodd" d="M160.371 118.442C160.299 119.098 159.937 119.454 159.274 119.495C159.271 118.761 159.607 118.379 160.371 118.442Z" fill="#977872"/>
<path fill-rule="evenodd" clip-rule="evenodd" d="M172.621 105.309C172.581 105.293 172.507 105.28 172.507 105.263C172.505 105.216 172.533 105.168 172.55 105.12C172.591 105.136 172.665 105.149 172.665 105.166C172.666 105.213 172.638 105.261 172.621 105.309Z" fill="#977872"/>
<path fill-rule="evenodd" clip-rule="evenodd" d="M126.015 80.677C125.873 80.2 125.733 79.722 125.59 79.244C126.079 79.377 126.568 79.51 127.056 79.643C127.01 80.291 126.712 80.685 126.015 80.677Z" fill="#572E25"/>
<path fill-rule="evenodd" clip-rule="evenodd" d="M53.005 76.465C52.882 76.508 52.727 76.608 52.574 76.607C52.383 76.606 52.194 76.464 52.296 76.257C52.354 76.141 52.575 76.054 52.726 76.049C52.912 76.044 53.068 76.165 53.005 76.465Z" fill="#572E25"/>
<path fill-rule="evenodd" clip-rule="evenodd" d="M125.602 79.256C124.012 78.465 122.977 76.99 121.563 75.983C119.072 73.999 116.198 72.796 113.18 71.887C113.298 71.536 113.415 71.186 113.533 70.837C115.636 71.138 117.393 72.333 119.327 73.072C119.846 74.44 121.295 74.538 122.321 75.194C122.77 75.481 123.242 75.739 123.657 76.085C123.998 77.33 126.058 77.521 125.602 79.256Z" fill="#572E25"/>
<path fill-rule="evenodd" clip-rule="evenodd" d="M82.43 81.477C82.306 81.349 82.182 81.22 82.058 81.092C81.912 79.814 82.195 78.77 83.575 78.328C84.674 78.557 84.727 79.451 84.835 80.31C84.232 81.109 83.397 81.429 82.43 81.477Z" fill="#572E25"/>
<path fill-rule="evenodd" clip-rule="evenodd" d="M88.596 80.311C88.625 81.04 88.961 81.881 88.138 82.364C87.701 82.619 87.408 82.204 87.202 81.83C87.349 81.032 87.903 80.608 88.596 80.311Z" fill="#977872"/>
<path fill-rule="evenodd" clip-rule="evenodd" d="M115.733 80.349C115.61 80.349 115.487 80.348 115.364 80.347C115.26 79.264 114.43 78.88 113.593 78.98C112.478 79.113 112.401 80.152 112.334 81.07C112.239 81.311 112.145 81.553 112.049 81.794C111.69 81.8 111.33 81.806 110.971 81.811C110.449 80.444 109.371 80.188 108.077 80.368C107.866 79.318 107.49 78.431 106.187 78.466C107.264 75.667 108.831 75.122 111.451 76.519C112.543 77.101 113.672 77.607 115.031 77.072C116.04 76.675 116.133 77.956 116.537 78.407C117.046 78.974 116.693 79.969 115.733 80.349Z" fill="#815F59"/>
<path fill-rule="evenodd" clip-rule="evenodd" d="M122.383 81.479C121.893 82.512 121.134 81.854 120.468 81.783C120.22 81.401 119.81 81.473 119.446 81.417C119.423 81.183 119.398 80.948 119.375 80.714C119.707 80.508 119.712 80.203 119.629 79.871C119.699 79.363 120.03 79.065 120.457 78.845C122.382 78.783 122.411 80.11 122.383 81.479Z" fill="#572E25"/>
<path fill-rule="evenodd" clip-rule="evenodd" d="M106.188 78.465C107.491 78.43 107.867 79.317 108.078 80.366C108.049 80.721 108.019 81.076 107.991 81.431L107.831 81.43L107.674 81.452C107.437 81.439 107.199 81.426 106.962 81.413C106.566 80.146 105.484 80.992 104.772 80.702C105.073 79.849 104.842 78.657 106.188 78.465Z" fill="#572E25"/>
<path fill-rule="evenodd" clip-rule="evenodd" d="M119.628 79.87C119.711 80.202 119.706 80.507 119.374 80.713C118.844 80.247 119.25 80.063 119.628 79.87Z" fill="#704B42"/>
<path fill-rule="evenodd" clip-rule="evenodd" d="M103.652 77.79C103.703 77.817 103.753 77.843 103.802 77.87C103.754 77.842 103.706 77.813 103.658 77.785L103.652 77.79Z" fill="#A58986"/>
<path fill-rule="evenodd" clip-rule="evenodd" d="M80.698 87.728C79.706 88.464 78.584 87.936 77.539 87.986C74.932 88.111 72.321 88.138 69.717 88.394C69.088 88.456 68.425 88.179 67.778 88.059C69.422 87.373 71.19 87.45 72.907 87.308C75.117 87.126 77.346 87.187 79.562 87.061C80.181 87.025 80.461 87.266 80.698 87.728Z" fill="#572E25"/>
<path fill-rule="evenodd" clip-rule="evenodd" d="M63.072 88.398C60.743 88.508 58.415 88.619 56.087 88.729C55.539 88.703 54.921 88.981 54.469 88.44C54.679 87.892 55.102 88.015 55.425 88.02C57.352 88.05 59.265 87.955 61.177 87.681C61.848 87.585 62.644 87.415 63.201 88.103C63.151 88.198 63.108 88.297 63.072 88.398Z" fill="#572E25"/>
<path fill-rule="evenodd" clip-rule="evenodd" d="M93.413 82.647C93.001 83.106 92.676 82.647 92.318 82.543C92.294 81.551 92.196 80.609 92.561 79.585C93.106 78.053 92.634 77.763 90.208 77.837C89.893 76.279 91.414 76.667 92.058 76.146C92.571 75.731 93.103 76.115 93.433 76.58C93.876 77.203 94.441 77.838 93.798 78.669C93.138 79.522 93.477 80.513 93.426 81.449C94.369 81.861 93.135 82.245 93.413 82.647Z" fill="#815F59"/>
<path fill-rule="evenodd" clip-rule="evenodd" d="M91.586 81.474C90.981 81.384 90.376 81.294 89.771 81.204C89.525 80.78 88.977 80.546 88.987 79.96C89.272 79.511 89.431 78.946 90.044 78.793C92.005 78.853 91.568 80.294 91.586 81.474Z" fill="#572E25"/>
<path fill-rule="evenodd" clip-rule="evenodd" d="M94.297 75.918C94.235 75.853 94.173 75.788 94.11 75.723C94.223 75.702 94.335 75.67 94.448 75.668C94.491 75.667 94.536 75.737 94.58 75.774C94.486 75.822 94.392 75.87 94.297 75.918Z" fill="#815F59"/>
<path fill-rule="evenodd" clip-rule="evenodd" d="M102.915 87.088C102.867 87.544 102.561 87.675 102.167 87.662C101.661 87.645 101.396 87.37 101.442 86.862C101.479 86.451 101.715 86.205 102.149 86.256C102.629 86.313 102.879 86.611 102.915 87.088Z" fill="#572E25"/>
<path fill-rule="evenodd" clip-rule="evenodd" d="M106.962 81.413C107.199 81.426 107.437 81.439 107.674 81.452C107.674 82.056 107.675 82.661 107.676 83.265C107.32 83.256 106.963 83.247 106.608 83.238C106.576 82.766 106.301 82.557 105.851 82.54C105.703 81.654 106.221 81.424 106.962 81.413Z" fill="#977872"/>
<path fill-rule="evenodd" clip-rule="evenodd" d="M107.991 81.432C108.019 81.077 108.049 80.722 108.078 80.367C109.372 80.188 110.449 80.444 110.972 81.811C111.172 82.979 110.63 83.423 109.513 83.307C108.756 82.884 108.868 81.756 107.991 81.432Z" fill="#977872"/>
<path fill-rule="evenodd" clip-rule="evenodd" d="M112.335 81.069C112.401 80.152 112.479 79.112 113.594 78.979C114.431 78.879 115.26 79.263 115.365 80.346C114.603 81.627 113.366 80.919 112.335 81.069Z" fill="#572E25"/>
</svg>
