<svg width="42" height="33" viewBox="0 0 51 41" fill="none" xmlns="http://www.w3.org/2000/svg">
<g clip-path="url(#clip0)">
<path d="M49.4987 4.36105C46.4076 3.05818 43.3141 2.5625 40.2223 2.5625C30.4072 2.5617 20.5928 7.55457 10.7777 7.55457C8.31619 7.55457 5.85623 7.24066 3.39469 6.4559C3.11817 6.36781 2.84086 6.32617 2.56992 6.32617C1.1985 6.32617 0 7.39281 0 8.87346V34.279C0 35.2904 0.576141 36.249 1.50131 36.6381C4.59239 37.9418 7.68586 38.4375 10.7777 38.4375C20.5928 38.4375 30.408 33.4446 40.2231 33.4446C42.6846 33.4446 45.1446 33.7585 47.6061 34.5433C47.8826 34.6314 48.1599 34.673 48.4309 34.673C49.8023 34.673 51.0008 33.6064 51.0008 32.1257V6.72096C51 5.70877 50.4239 4.75104 49.4987 4.36105V4.36105ZM25.5 28.1875C21.9786 28.1875 19.125 24.7449 19.125 20.5C19.125 16.2543 21.9794 12.8125 25.5 12.8125C29.0206 12.8125 31.875 16.2543 31.875 20.5C31.875 24.7465 29.0198 28.1875 25.5 28.1875Z" fill="#D1EDCB"/>
</g>
<defs>
<clipPath id="clip0">
<rect width="51" height="41" fill="white"/>
</clipPath>
</defs>
</svg>
