<svg width="56" height="70" viewBox="0 0 56 70" fill="none" xmlns="http://www.w3.org/2000/svg">
<path d="M47.5017 12.9075L45.6496 62.9148C45.6178 63.7731 44.8619 64.5 44 64.5H12C11.1389 64.5 10.3821 63.7704 10.3504 62.9148L8.49829 12.9075C8.44719 11.5277 7.28724 10.4506 5.90747 10.5017C4.52771 10.5528 3.45061 11.7128 3.50172 13.0926L5.35384 63.0999C5.48505 66.6426 8.44909 69.5 12 69.5H44C47.5491 69.5 50.5148 66.648 50.6462 63.0999L52.4983 13.0926C52.5494 11.7128 51.4723 10.5528 50.0925 10.5017C48.7128 10.4506 47.5528 11.5277 47.5017 12.9075Z" fill="black"/>
<path d="M26 23V57C26 58.1046 26.8954 59 28 59C29.1046 59 30 58.1046 30 57V23C30 21.8954 29.1046 21 28 21C26.8954 21 26 21.8954 26 23Z" fill="black"/>
<path d="M15.0009 23.0588L16.0009 57.0588C16.0333 58.1629 16.9547 59.0316 18.0588 58.9992C19.1629 58.9667 20.0316 58.0453 19.9991 56.9412L18.9991 22.9412C18.9667 21.8371 18.0453 20.9684 16.9412 21.0009C15.8371 21.0334 14.9684 21.9547 15.0009 23.0588Z" fill="black"/>
<path d="M37.0009 22.9412L36.0009 56.9412C35.9684 58.0453 36.8371 58.9667 37.9412 58.9992C39.0453 59.0316 39.9667 58.1629 39.9991 57.0588L40.9991 23.0588C41.0316 21.9547 40.1629 21.0334 39.0588 21.0009C37.9547 20.9684 37.0333 21.8371 37.0009 22.9412Z" fill="black"/>
<path d="M3 14H53C54.3807 14 55.5 12.8807 55.5 11.5C55.5 10.1193 54.3807 9 53 9H3C1.61929 9 0.5 10.1193 0.5 11.5C0.5 12.8807 1.61929 14 3 14Z" fill="black"/>
<path d="M20.4038 10.6868L21.4448 7.04328C21.6678 6.26291 22.6794 5.5 23.4915 5.5H32.5085C33.3212 5.5 34.332 6.26226 34.5552 7.04328L35.5962 10.6868L40.4038 9.3132L39.3628 5.66968C38.5263 2.74183 35.5532 0.5 32.5085 0.5H23.4915C20.4471 0.5 17.4735 2.74264 16.6372 5.66968L15.5962 9.3132L20.4038 10.6868Z" fill="black"/>
</svg>
