<svg width="67" height="80" viewBox="0 0 84 100" fill="none" xmlns="http://www.w3.org/2000/svg">
<path d="M14.7692 70.1219V93.5976H67.6923V70.1219H14.7692ZM67.0769 92.9695H15.5385V70.7501H67.0769V81.8598V92.9695Z" fill="#C0E7B8"/>
<path d="M0 0V100H84V0H0ZM82 98H2V2H82V98Z" fill="#C0E7B8"/>
<path fill-rule="evenodd" clip-rule="evenodd" d="M41.5933 11.8903C56.0927 11.8903 67.6923 23.3837 67.6923 38.4689C67.6923 52.8358 56.0927 64.3293 41.5933 64.3293C26.3688 64.3293 14.7692 52.8358 14.7692 38.4689C14.7692 23.3837 26.3688 11.8903 41.5933 11.8903ZM41.5933 14.0453C54.6428 14.0453 65.5174 24.8204 65.5174 38.4689C65.5174 51.3991 54.6428 62.1743 41.5933 62.1743C27.8188 62.1743 16.9441 51.3991 16.9441 38.4689C16.9441 24.8204 27.8188 14.0453 41.5933 14.0453Z" fill="#C0E7B8"/>
</svg>
