<svg width="74" height="80" viewBox="0 0 87 94" fill="none" xmlns="http://www.w3.org/2000/svg">
<path d="M26.8125 6.10352e-05C26.5149 0.029061 26.2242 0.12605 25.9687 0.28125C21.4843 2.97205 16.052 3.32937 10.4062 5.09387C7.99995 5.98727 4.99995 8.98727 4.03125 11.6879C2.54565 18.4593 0 23.8299 0 43.0004C0.005 43.9497 0.77884 44.8356 1.71875 44.9692L15.7188 46.9692C16.6874 47.1048 17.7023 46.4186 17.9375 45.4692C18.5147 43.1603 18.504 40.7135 18.7188 38.4066C20.2558 46.473 20.5145 55.1777 19.0312 62.5942C17.9613 66.9142 17 75.0044 17 92.0004C17.0001 93.0476 17.9528 94.0003 19 94.0004H68C69.0472 94.0003 69.9999 93.0476 70 92.0004C70 75.0049 69.0433 66.9289 67.9688 62.6566C66.5044 55.289 66.7366 46.6966 68.2188 38.7192C68.4339 40.9275 68.4848 43.1583 69.0625 45.4692C69.2977 46.4186 70.3126 47.1048 71.2812 46.9692L85.2812 44.9692C86.2212 44.8356 86.9946 43.9495 87 43.0002C87 23.8897 85.3148 19.3246 82.9062 11.4065C81.9999 8.98719 78.9999 5.98717 76.5938 5.06317C71.0024 3.36507 65.5217 2.97626 61.0312 0.28186C60.7213 0.0974603 60.3607 -0.000828613 60 0.000671387C48.4443 0.000871387 36.7104 0.000861035 26.8125 6.10352e-05ZM26.6562 4.37506C28.3115 5.78636 30.6119 7.35956 33.0625 9.00006H11.5C16.8647 7.05066 22.4713 6.45676 26.6562 4.37506ZM60.3437 4.37506C65.2791 6.88856 70.922 7.59856 75.5312 9.00006H54.4062C56.6767 7.35196 58.7805 5.75986 60.3437 4.37506ZM8.74995 11.0001H36.0625C38.7644 12.7963 41.4386 14.5455 44 16.5001C46.6022 14.5458 49.3832 12.5925 51.625 11.0001H78.2812C79.3828 12.7358 79.8991 15.1067 80.4374 17.0001H6.84365C7.48398 14.7996 7.84432 12.5842 8.74995 11.0001ZM6.3437 19.0001H80.9374C81.3889 20.7984 81.7885 22.7312 82.0937 25.0001H5.18745C5.53869 22.7067 5.9242 20.7567 6.3437 19.0001ZM4.9062 27.0001H82.3437C82.5222 28.719 82.6467 30.7509 82.7499 33.0001H71.1874C70.8183 32.0089 70.3374 31.0001 69.7187 29.9689C68.351 28.4735 66.9884 29.0746 66.0937 30.4062C65.8392 31.2547 65.6012 32.1276 65.3749 33.0001H21.625C21.3987 32.1277 21.1607 31.2547 20.9062 30.4062C20.0184 28.7211 18.6318 28.8648 17.4062 29.7812C16.6468 30.7938 16.1336 31.8911 15.75 33.0001H4.3437C4.48551 30.7135 4.6852 28.7646 4.9062 27.0001ZM4.24995 35.0001H15.1875C14.9935 35.9416 14.8718 36.875 14.7812 37.7812C14.5878 39.7151 14.4335 41.2348 14.25 42.7189L4.06245 41.2501C4.08445 38.9483 4.16205 36.8856 4.24995 35.0001ZM22.125 35.0001H64.8749C64.426 36.9558 64.048 38.9744 63.7499 41.0001H23.25C22.9518 38.9758 22.5739 36.9554 22.125 35.0001ZM71.8124 35.0001H82.8437C82.9055 36.879 82.9542 38.9258 82.9687 41.2501L72.7499 42.7189C72.5078 40.5606 72.5421 37.9068 71.8124 35.0001ZM23.5 43.0001H63.4999C63.2599 44.9941 63.0791 46.9946 62.9999 49.0001H24C23.9207 46.9982 23.7401 44.9922 23.5 43.0001ZM24.0625 51.0001H62.9374C62.9141 53.0188 62.9989 55.0256 63.1562 57.0001H23.8437C24.0029 55.0225 24.0859 53.025 24.0625 51.0001ZM23.625 59.0001H63.3749C63.566 61.2096 63.9756 63.028 64.3749 65.0001H22.5937C23.0845 63.0398 23.4151 60.8108 23.625 59.0001ZM22.2812 67.0001H64.7187C64.9449 68.5829 65.129 70.6047 65.3124 73.0001H21.6875C21.8706 70.6016 22.0548 68.5928 22.2812 67.0001ZM21.5312 75.0001H65.4687C65.5822 76.7907 65.6735 78.7746 65.7499 81.0001H21.25C21.3262 78.7746 21.418 76.792 21.5312 75.0001ZM21.1875 83.0001H56V86.0001H65.9062C65.9232 86.9702 65.928 87.9598 65.9374 89.0001H21.0624C21.082 86.8434 21.1371 84.8598 21.1875 83.0001Z" fill="black"/>
</svg>
