<svg width="60" height="60" viewBox="0 0 37 37" fill="none" xmlns="http://www.w3.org/2000/svg">
<path d="M22.8018 10.7117C22.4489 10.3589 21.8314 10.2707 21.4785 10.6235C21.1257 10.9764 21.0375 11.5939 21.3903 11.9468L26.3304 17.0633L8.86364 17.0633C8.33434 17.0633 7.89326 17.5044 7.89326 18.0337C7.89326 18.563 8.33434 19.0041 8.86364 19.0041L26.3304 19.0041L21.3903 24.1206C21.0375 24.4735 21.1257 25.091 21.4785 25.4438C21.8314 25.7967 22.4489 25.7085 22.8018 25.3556L29.8591 17.9455L22.8018 10.7117Z" fill="#F3752B"/>
<path d="M2.5 37L34.5 37C36 37 37 36.1 37 34.5L37 2.45107C37 0.951069 36.1 0 34.5 0L2.5 0C1 0 0 0.9 0 2.5L0 34.4101C0 36.0101 1 37 2.5 37ZM2 3C2 2.3 2.3 2 3 2L34 2C34.7 2 35 2.3 35 3L35 34C35 34.7 34.7 35 34 35L2.99319 35C2.29319 35 2 34.7 2 34L2 3Z" fill="#F3752B"/>
</svg>
