<svg width="40" height="40" viewBox="0 0 37 37" fill="none" xmlns="http://www.w3.org/2000/svg">
<path d="M14.1982 25.2883C14.5511 25.6411 15.1686 25.7293 15.5215 25.3765C15.8743 25.0236 15.9625 24.4061 15.6097 24.0532L10.6696 18.9367L28.1364 18.9367C28.6657 18.9367 29.1067 18.4956 29.1067 17.9663C29.1067 17.437 28.6657 16.9959 28.1364 16.9959L10.6696 16.9959L15.6097 11.8794C15.9625 11.5265 15.8743 10.909 15.5215 10.5562C15.1686 10.2033 14.5511 10.2915 14.1982 10.6444L7.14094 18.0545L14.1982 25.2883Z" fill="#9BC53D"/>
<path d="M34.5 0H2.5C1 0 0 0.9 0 2.5V34.5489C0 36.0489 0.9 37 2.5 37H34.5C36 37 37 36.1 37 34.5V2.58987C37 0.989866 36 0 34.5 0ZM35 34C35 34.7 34.7 35 34 35H3C2.3 35 2 34.7 2 34V3C2 2.3 2.3 2 3 2H34.0068C34.7068 2 35 2.3 35 3V34Z" fill="#9BC53D"/>
</svg>

