<svg width="23" height="40" viewBox="0 0 110 192" fill="none" xmlns="http://www.w3.org/2000/svg">
<path fill-rule="evenodd" clip-rule="evenodd" d="M33.49 95.095C46.377 108.306 58.605 120.976 70.987 133.494C82.132 144.76 93.46 155.84 104.676 167.033C110.956 173.301 111.326 181.736 105.649 187.39C100.013 192.999 91.513 192.716 85.244 186.507C58.554 160.075 31.895 133.612 5.268 107.118C-1.292 100.591 -1.308 91.427 5.236 84.916C31.863 58.419 58.522 31.956 85.211 5.52301C91.614 -0.818995 100.256 -1.01199 105.901 4.86501C111.385 10.574 110.816 18.869 104.422 25.223C81.747 47.752 59.055 70.264 36.352 92.763C35.387 93.721 34.24 94.491 33.49 95.095Z" fill="#9BC53D"/>
</svg>
