<svg width="60" height="96" viewBox="0 0 60 96" fill="none" xmlns="http://www.w3.org/2000/svg">
<path d="M0.75 13.75L0.75 15.05L0.75 30.05L0.75 31.35L0.75 49.35V49.65V50.25L0.75 50.75L0.75 68.75L0.75 70.05L0.75 84.95L0.75 86.25L0.75 95.05H57.85H59.15H59.25V86.35V85.05V70.05V68.75V50.75V50.45V49.85V49.35L59.25 31.35V30.05V15.15V13.85V5.04999H0.75L0.75 13.75ZM2.55 93.25L2.55 86.35H57.45V93.25H2.55ZM57.35 84.95H52.95V84.75H51.65V84.95H46.35V82.75H46.95V81.45H41.55V82.75H44.95V84.95H15.05V82.75H18.45V81.45H13.05V82.75H13.65V84.95H8.35V84.75H6.95V84.95H2.45L2.45 70.05H13.65V73.25H14.95V70.05H44.85V73.25H46.15V70.05H57.35V84.95ZM57.35 68.75H52.95V66.95H51.65V68.75H8.35V66.95H6.95V68.75H2.45L2.45 50.75H6.95V50.95H8.35V50.75H13.65L13.65 53.85H14.95L14.95 50.75H44.85V53.85H46.15V50.75H51.45V50.95H52.95V50.75H57.45V68.75H57.35ZM57.35 49.35H52.95V49.15H51.65V49.35H46.35V46.25H45.05V49.35H15.05V46.25H13.75V49.35H8.45V49.15H6.95V49.35H2.45L2.45 31.35H6.95V33.15H8.35V31.35H51.55V33.15H52.95V31.35H57.45L57.45 49.35H57.35ZM57.35 30.05H46.25V26.85H44.95V30.05H15.05V26.85H13.75V30.05H2.55L2.55 15.15H6.95L6.95 15.35H8.35L8.35 15.15H13.65V17.35H13.05V18.65H18.45V17.35H15.05V15.15H44.95V17.35H41.55V18.65H46.95V17.35H46.35V15.15H51.65V15.35H52.95V15.15H57.45V30.05H57.35ZM57.35 6.84999V13.75H2.55L2.55 6.84999H57.35Z" fill="black"/>
<path d="M6.95001 59.85V61.65H8.25001V59.85H6.95001Z" fill="black"/>
<path d="M6.95001 52.75V54.55H8.25001V52.75H6.95001Z" fill="black"/>
<path d="M6.95001 56.25V58.05H8.25001V56.25H6.95001Z" fill="black"/>
<path d="M6.95001 45.55V47.35H8.25001V45.55H6.95001Z" fill="black"/>
<path d="M6.95001 63.35V65.15H8.25001V63.35H6.95001Z" fill="black"/>
<path d="M6.95001 34.85V36.65H8.25001V34.85H6.95001Z" fill="black"/>
<path d="M6.95001 38.45V40.25H8.25001V38.45H6.95001Z" fill="black"/>
<path d="M6.95001 42.05V43.85H8.25001V42.05H6.95001Z" fill="black"/>
<path d="M6.95001 74.05V75.85H8.25001V74.05H6.95001Z" fill="black"/>
<path d="M6.95001 77.65V79.45H8.25001V77.65H6.95001Z" fill="black"/>
<path d="M6.95001 70.55V72.35H8.25001V70.55H6.95001Z" fill="black"/>
<path d="M6.95001 27.75V29.55H8.25001V27.75H6.95001Z" fill="black"/>
<path d="M6.95001 20.65V22.45H8.25001V20.65H6.95001Z" fill="black"/>
<path d="M6.95001 24.25V26.05H8.25001V24.25H6.95001Z" fill="black"/>
<path d="M13.65 34.95V42.45H14.95V34.95H13.65Z" fill="black"/>
<path d="M13.65 57.55V65.05H14.95V57.55H13.65Z" fill="black"/>
<path d="M51.55 56.25V58.05H52.85V56.25H51.55Z" fill="black"/>
<path d="M51.55 77.65V79.45H52.85V77.65H51.55Z" fill="black"/>
<path d="M51.55 70.55V72.35H52.85V70.55H51.55Z" fill="black"/>
<path d="M51.55 52.75V54.55H52.85V52.75H51.55Z" fill="black"/>
<path d="M51.55 74.05V75.85H52.85V74.05H51.55Z" fill="black"/>
<path d="M51.55 63.35V65.15H52.85V63.35H51.55Z" fill="black"/>
<path d="M51.55 59.85V61.65H52.85V59.85H51.55Z" fill="black"/>
<path d="M51.55 27.75V29.55H52.85V27.75H51.55Z" fill="black"/>
<path d="M51.55 34.85V36.65H52.85V34.85H51.55Z" fill="black"/>
<path d="M51.55 45.55V47.35H52.85V45.55H51.55Z" fill="black"/>
<path d="M51.55 38.45V40.25H52.85V38.45H51.55Z" fill="black"/>
<path d="M51.55 42.05V43.85H52.85V42.05H51.55Z" fill="black"/>
<path d="M51.55 20.65V22.45H52.85V20.65H51.55Z" fill="black"/>
<path d="M51.55 24.25V26.05H52.85V24.25H51.55Z" fill="black"/>
<path d="M44.85 57.55V65.05H46.15V57.55H44.85Z" fill="black"/>
<path d="M44.85 34.95V42.45H46.15V34.95H44.85Z" fill="black"/>
<path d="M8.94999 18.65V17.35H8.34999V17.15H6.94999V17.35H6.04999V18.65H6.94999V18.85H8.34999V18.65H8.94999Z" fill="black"/>
<path d="M32.05 17.35V18.65H37.45V17.35H32.05Z" fill="black"/>
<path d="M22.55 17.35V18.65H27.95V17.35H22.55Z" fill="black"/>
<path d="M50.95 17.35V18.65H51.55V18.85H52.95V18.65H53.85V17.35H52.95V17.15H51.55V17.35H50.95Z" fill="black"/>
<path d="M13.05 43.65V44.95H18.45V43.65H13.05Z" fill="black"/>
<path d="M22.55 43.65V44.95H27.95V43.65H22.55Z" fill="black"/>
<path d="M41.45 43.65V44.95H46.85V43.65H41.45Z" fill="black"/>
<path d="M32.05 43.65V44.95H37.45V43.65H32.05Z" fill="black"/>
<path d="M50.95 81.35V82.75H51.55V82.95H52.95V82.75H53.85V81.35H52.95V81.25H51.55V81.35H50.95Z" fill="black"/>
<path d="M32.05 81.45V82.75H37.45V81.45H32.05Z" fill="black"/>
<path d="M22.55 81.45V82.75H27.95V81.45H22.55Z" fill="black"/>
<path d="M6.04999 81.35V82.75H6.94999V82.95H8.34999V82.75H8.94999V81.35H8.34999V81.25H6.94999V81.35H6.04999Z" fill="black"/>
<path d="M32.05 55.15V56.45H37.45V55.15H32.05Z" fill="black"/>
<path d="M22.55 55.15V56.45H27.95V55.15H22.55Z" fill="black"/>
<path d="M13.05 55.15V56.45H18.45V55.15H13.05Z" fill="black"/>
<path d="M41.45 55.15V56.45H46.85V55.15H41.45Z" fill="black"/>
<path d="M26.5868 10H30H33.4848V15H35V0H33.4848V8.6235H26.5868V0H25V15H26.5868V10Z" fill="black"/>
<path d="M26.5868 81H30H33.4848V86H35V71H33.4848V79.6235H26.5868V71H25V86H26.5868V81Z" fill="black"/>
</svg>
